SplineFontDB: 3.0
FontName: Shanti
FullName: Shanti
FamilyName: Shanti
Weight: Book
Copyright: Copyright (c) 2011 by vernon adams. All rights reserved.
Version: 1.000
ItalicAngle: 0
UnderlinePosition: -103
UnderlineWidth: 102
Ascent: 1638
Descent: 410
sfntRevision: 0x00010000
LayerCount: 2
Layer: 0 1 "Back"  1
Layer: 1 1 "Fore"  0
XUID: [1021 14 500265001 10998187]
FSType: 256
OS2Version: 3
OS2_WeightWidthSlopeOnly: 0
OS2_UseTypoMetrics: 1
CreationTime: 1310319518
ModificationTime: 1311797654
PfmFamily: 17
TTFWeight: 400
TTFWidth: 5
LineGap: 0
VLineGap: 0
Panose: 2 0 5 3 0 0 0 2 0 3
OS2TypoAscent: 392
OS2TypoAOffset: 1
OS2TypoDescent: -228
OS2TypoDOffset: 1
OS2TypoLinegap: 0
OS2WinAscent: 0
OS2WinAOffset: 1
OS2WinDescent: 0
OS2WinDOffset: 1
HheadAscent: 0
HheadAOffset: 1
HheadDescent: 0
HheadDOffset: 1
OS2SubXSize: -28504
OS2SubYSize: -31306
OS2SubXOff: 0
OS2SubYOff: 2673
OS2SupXSize: -28504
OS2SupYSize: -31306
OS2SupXOff: 0
OS2SupYOff: 17254
OS2StrikeYSize: 102
OS2StrikeYPos: 512
OS2Vendor: 'newt'
OS2CodePages: 20000003.00000000
OS2UnicodeRanges: 800000ef.5000204b.00000000.00000000
Lookup: 258 0 0 "'kern' Horizontal Kerning lookup 0"  {"'kern' Horizontal Kerning lookup 0 per glyph data 0"  "'kern' Horizontal Kerning lookup 0 per glyph data 1"  } ['kern' ('DFLT' <'dflt' > ) ]
DEI: 91125
TtTable: prep
PUSHW_2
 2048
 2048
MUL
DUP
PUSHB_1
 10
SWAP
WS
DUP
PUSHB_1
 0
SWAP
WCVTF
PUSHB_1
 16
RCVT
DUP
DUP
PUSHB_1
 40
ADD
FLOOR
DUP
ROLL
NEQ
IF
PUSHB_1
 10
RS
MUL
SWAP
DIV
PUSHB_1
 9
SWAP
WS
PUSHB_4
 5
 6
 3
 2
CALL
PUSHB_4
 7
 12
 3
 2
CALL
PUSHB_4
 13
 18
 3
 2
CALL
ELSE
PUSHB_2
 9
 10
RS
WS
EIF
PUSHB_3
 11
 40
 2
RCVT
GT
WS
PUSHB_4
 7
 12
 4
 2
CALL
EndTTInstrs
TtTable: fpgm
PUSHB_1
 0
FDEF
DUP
ABS
PUSHB_1
 32
ADD
FLOOR
SWAP
PUSHB_1
 0
LT
IF
NEG
EIF
ENDF
PUSHB_1
 1
FDEF
DUP
ABS
DUP
PUSHB_1
 192
LT
PUSHB_1
 4
MINDEX
AND
PUSHB_1
 11
RS
OR
IF
POP
SWAP
POP
ELSE
ROLL
IF
DUP
PUSHB_1
 80
LT
IF
POP
PUSHB_1
 64
EIF
ELSE
DUP
PUSHB_1
 56
LT
IF
POP
PUSHB_1
 56
EIF
EIF
DUP
PUSHB_1
 5

StartChar: exclam
Encoding: 33 33 8
Width: 530
GlyphClass: 2
Flags: W
LayerCount: 2
Fore
SplineSet
321 339 m 1,0,-1
 209 339 l 1,1,-1
 209 1394 l 1,2,-1
 369 1394 l 1,3,-1
 321 339 l 1,0,-1
161 211 m 1,4,-1
 369 211 l 1,5,-1
 369 0 l 1,6,-1
 161 0 l 1,7,-1
 161 211 l 1,4,-1
EndSplineSet
EndChar

StartChar: quotedbl
Encoding: 34 34 9
Width: 762
GlyphClass: 2
Flags: W
LayerCount: 2
Fore
SplineSet
308 1377 m 1,0,-1
 308 875 l 1,1,-1
 169 875 l 1,2,-1
 123 1377 l 1,3,-1
 308 1377 l 1,0,-1
638 1377 m 1,4,-1
 593 875 l 1,5,-1
 474 875 l 1,6,-1
 474 1377 l 1,7,-1
 638 1377 l 1,4,-1
EndSplineSet
EndChar

StartChar: numbersign
Encoding: 35 35 10
Width: 1274
GlyphClass: 2
Flags: W
LayerCount: 2
Fore
SplineSet
943 824 m 1,0,-1
 888 539 l 1,1,-1
 1113 539 l 1,2,-1
 1113 393 l 1,3,-1
 861 393 l 1,4,-1
 787 0 l 1,5,-1
 627 0 l 1,6,-1
 701 393 l 1,7,-1
 459 393 l 1,8,-1
 384 0 l 1,9,-1
 226 0 l 1,10,-1
 300 393 l 1,11,-1
 85 393 l 1,12,-1
 85 539 l 1,13,-1
 327 539 l 1,14,-1
 381 824 l 1,15,-1
 159 824 l 1,16,-1
 159 971 l 1,17,-1
 409 971 l 1,18,-1
 483 1377 l 1,19,-1
 644 1377 l 1,20,-1
 568 971 l 1,21,-1
 813 971 l 1,22,-1
 888 1377 l 1,23,-1
 1048 1377 l 1,24,-1
 969 971 l 1,25,-1
 1187 971 l 1,26,-1
 1187 824 l 1,27,-1
 943 824 l 1,0,-1
486 539 m 1,28,-1
 729 539 l 1,29,-1
 784 824 l 1,30,-1
 540 824 l 1,31,-1
 486 539 l 1,28,-1
EndSplineSet
EndChar

StartChar: dollar
Encoding: 36 36 11
Width: 1099
GlyphClass: 2
Flags: W
LayerCount: 2
Fore
SplineSet
90 285 m 1,0,-1
 206 365 l 1,1,2
 297 217 297 217 484 207 c 1,3,-1
 484 629 l 1,4,5
 274 693 274 693 193.5 773.5 c 128,-1,6
 113 854 113 854 113 1002 c 256,7,8
 113 1150 113 1150 226 1240 c 0,9,10
 326 1320 326 1320 487 1339 c 1,11,-1
 487 1503 l 1,12,-1
 611 1503 l 1,13,-1
 611 1342 l 1,14,15
 738 1333 738 1333 806.5 1304 c 128,-1,16
 875 1275 875 1275 919 1233.5 c 128,-1,17
 963 1192 963 1192 983 1124 c 1,18,-1
 838 1058 l 1,19,20
 808 1118 808 1118 747.5 1144 c 128,-1,21
 687 1170 687 1170 610 1178 c 1,22,-1
 610 787 l 1,23,24
 790 732 790 732 862.5 674.5 c 128,-1,25
 935 617 935 617 970 555.5 c 128,-1,26
 1005 494 1005 494 1005 409.5 c 128,-1,27
 1005 325 1005 325 973 261 c 128,-1,28
 941 197 941 197 886 152 c 0,29,30
 780 64 780 64 607 43 c 1,31,-1
 607 -161 l 1,32,-1
 484 -161 l 1,33,-1
 484 39 l 1,34,35
 181 44 181 44 90 285 c 1,0,-1
808 400 m 0,36,37
 808 435 808 435 792 464.5 c 128,-1,38
 776 494 776 494 749 517 c 0,39,40
 705 554 705 554 610 590 c 1,41,-1
 610 212 l 1,42,43
 707 223 707 223 761 279 c 0,44,45
 808 328 808 328 808 400 c 0,36,37
312 1054 m 0,46,47
 305 1029 305 1029 305 999.5 c 128,-1,48
 305 970 305 970 318.5 942 c 128,-1,49
 332 914 332 914 356 893 c 0,50,51
 398 858 398 858 486 826 c 1,52,-1
 486 1175 l 1,53,54
 336 1147 336 1147 312 1054 c 0,46,47
EndSplineSet
EndChar

StartChar: percent
Encoding: 37 37 12
Width: 1643
GlyphClass: 2
Flags: W
LayerCount: 2
Fore
SplineSet
538 1010 m 128,-1,1
 538 1272 538 1272 389 1272 c 0,2,3
 262 1272 262 1272 243 1100 c 0,4,5
 238 1053 238 1053 238 1009 c 0,6,7
 238 897 238 897 259 847 c 128,-1,8
 280 797 280 797 309.5 772.5 c 128,-1,9
 339 748 339 748 389 748 c 0,10,0
 538 748 538 748 538 1010 c 128,-1,1
695 1008 m 0,11,12
 695 917 695 917 673.5 842.5 c 128,-1,13
 652 768 652 768 612 718 c 0,14,15
 530 616 530 616 387 616 c 0,16,17
 173 616 173 616 104 837 c 0,18,19
 82 910 82 910 82 1004 c 128,-1,20
 82 1098 82 1098 101 1171 c 128,-1,21
 120 1244 120 1244 159 1296 c 0,22,23
 241 1405 241 1405 396 1405 c 0,24,25
 547 1405 547 1405 624 1294 c 1,26,27
 695 1194 695 1194 695 1008 c 0,11,12
1408 375 m 128,-1,29
 1408 638 1408 638 1256 638 c 0,30,31
 1129 638 1129 638 1111 457 c 0,32,33
 1106 408 1106 408 1106 362 c 0,34,35
 1106 112 1106 112 1254 112 c 0,36,28
 1408 112 1408 112 1408 375 c 128,-1,29
1562 370 m 0,37,38
 1562 285 1562 285 1543.5 211.5 c 128,-1,39
 1525 138 1525 138 1487 86 c 0,40,41
 1408 -22 1408 -22 1255 -22 c 0,42,43
 1098 -22 1098 -22 1018 94 c 1,44,45
 950 195 950 195 950 372 c 0,46,47
 950 562 950 562 1033 666 c 1,48,49
 1113 768 1113 768 1255 768 c 0,50,51
 1426 768 1426 768 1510 617 c 0,52,53
 1562 524 1562 524 1562 370 c 0,37,38
1305 1418 m 1,54,55
 841 592 841 592 480 -40 c 1,56,-1
 330 -40 l 1,57,-1
 1156 1418 l 1,58,-1
 1305 1418 l 1,54,55
EndSplineSet
EndChar

StartChar: ampersand
Encoding: 38 38 13
Width: 1452
GlyphClass: 2
Flags: W
LayerCount: 2
Fore
SplineSet
380 807 m 1,0,1
 228 971 228 971 228 1135 c 0,2,3
 228 1280 228 1280 324 1364 c 0,4,5
 421 1449 421 1449 598 1449 c 0,6,7
 847 1449 847 1449 930 1282 c 1,8,9
 959 1226 959 1226 959 1154 c 128,-1,10
 959 1082 959 1082 933 1025.5 c 128,-1,11
 907 969 907 969 867 922 c 0,12,13
 804 850 804 850 687 775 c 1,14,-1
 1015 441 l 1,15,16
 1089 548 1089 548 1112 693 c 0,17,18
 1121 746 1121 746 1126 812 c 1,19,-1
 1319 812 l 1,20,21
 1305 649 1305 649 1273 560 c 0,22,23
 1221 420 1221 420 1138 315 c 1,24,-1
 1444 1 l 1,25,-1
 1185 1 l 1,26,-1
 1014 171 l 1,27,28
 905 73 905 73 827 39 c 0,29,30
 686 -22 686 -22 565 -22 c 128,-1,31
 444 -22 444 -22 359.5 7 c 128,-1,32
 275 36 275 36 216 89 c 0,33,34
 97 197 97 197 97 377 c 0,35,36
 97 579 97 579 269 722 c 0,37,38
 321 766 321 766 380 807 c 1,0,1
471 164.5 m 128,-1,40
 519 151 519 151 572.5 151 c 128,-1,41
 626 151 626 151 674.5 164 c 128,-1,42
 723 177 723 177 762 198 c 1,43,44
 823 229 823 229 889 293 c 1,45,46
 770 407 770 407 638 545 c 2,47,-1
 505 684 l 1,48,49
 345 572 345 572 312 464 c 0,50,51
 300 426 300 426 300 374 c 128,-1,52
 300 322 300 322 323.5 278.5 c 128,-1,53
 347 235 347 235 385 206.5 c 128,-1,39
 423 178 423 178 471 164.5 c 128,-1,40
563 902 m 1,54,55
 758 1027 758 1027 758 1147 c 0,56,57
 758 1202 758 1202 728 1232 c 0,58,59
 675 1285 675 1285 598 1285 c 0,60,61
 522 1285 522 1285 474 1244 c 1,62,63
 428 1203 428 1203 428 1143 c 0,64,65
 428 1037 428 1037 563 902 c 1,54,55
EndSplineSet
EndChar

StartChar: quotesingle
Encoding: 39 39 14
Width: 437
GlyphClass: 2
Flags: W
LayerCount: 2
Fore
SplineSet
267 875 m 1,0,-1
 149 875 l 1,1,-1
 149 1377 l 1,2,-1
 312 1377 l 1,3,-1
 267 875 l 1,0,-1
EndSplineSet
EndChar

StartChar: parenleft
Encoding: 40 40 15
Width: 579
GlyphClass: 2
Flags: W
LayerCount: 2
Fore
SplineSet
120 374 m 0,0,1
 100 487 100 487 100 602 c 128,-1,2
 100 717 100 717 122.5 838 c 128,-1,3
 145 959 145 959 182 1072 c 0,4,5
 253 1291 253 1291 353 1449 c 1,6,-1
 508 1449 l 1,7,8
 357 1159 357 1159 304 810 c 0,9,10
 288 700 288 700 288 597 c 128,-1,11
 288 494 288 494 301.5 393.5 c 128,-1,12
 315 293 315 293 342 190 c 0,13,14
 393 0 393 0 511 -261 c 1,15,-1
 358 -261 l 1,16,17
 176 47 176 47 120 374 c 0,0,1
EndSplineSet
EndChar

StartChar: parenright
Encoding: 41 41 16
Width: 579
GlyphClass: 2
Flags: W
LayerCount: 2
Fore
SplineSet
72 -261 m 1,0,1
 290 175 290 175 290 582 c 0,2,3
 290 883 290 883 166 1211 c 0,4,5
 124 1322 124 1322 67 1449 c 1,6,-1
 220 1449 l 1,7,8
 401 1136 401 1136 459 808 c 0,9,10
 479 694 479 694 479 579.5 c 128,-1,11
 479 465 479 465 456.5 344 c 128,-1,12
 434 223 434 223 398 111 c 0,13,14
 327 -110 327 -110 227 -261 c 1,15,-1
 72 -261 l 1,0,1
EndSplineSet
EndChar

StartChar: asterisk
Encoding: 42 42 17
Width: 948
GlyphClass: 2
Flags: W
LayerCount: 2
Fore
SplineSet
211 1334 m 1,0,-1
 336 1411 l 1,1,-1
 473 1183 l 1,2,-1
 610 1411 l 1,3,-1
 737 1334 l 1,4,-1
 604 1118 l 1,5,-1
 839 1118 l 1,6,-1
 839 969 l 1,7,-1
 603 969 l 1,8,-1
 736 754 l 1,9,-1
 610 677 l 1,10,-1
 473 904 l 1,11,-1
 336 677 l 1,12,-1
 210 754 l 1,13,-1
 340 969 l 1,14,-1
 109 969 l 1,15,-1
 109 1118 l 1,16,-1
 341 1118 l 1,17,-1
 211 1334 l 1,0,-1
EndSplineSet
EndChar

StartChar: plus
Encoding: 43 43 18
Width: 1122
GlyphClass: 2
Flags: W
LayerCount: 2
Fore
SplineSet
478 505 m 1,0,-1
 87 505 l 1,1,-1
 87 665 l 1,2,-1
 478 665 l 1,3,-1
 478 1058 l 1,4,-1
 642 1058 l 1,5,-1
 642 665 l 1,6,-1
 1035 665 l 1,7,-1
 1035 505 l 1,8,-1
 642 505 l 1,9,-1
 642 114 l 1,10,-1
 478 114 l 1,11,-1
 478 505 l 1,0,-1
EndSplineSet
EndChar

StartChar: comma
Encoding: 44 44 19
Width: 519
GlyphClass: 2
Flags: W
LayerCount: 2
Fore
SplineSet
57 -248 m 1,0,-1
 169 244 l 1,1,-1
 391 244 l 1,2,-1
 197 -248 l 1,3,-1
 57 -248 l 1,0,-1
EndSplineSet
EndChar

StartChar: hyphen
Encoding: 45 45 20
Width: 776
GlyphClass: 2
Flags: W
LayerCount: 2
Fore
SplineSet
143 439 m 1,0,-1
 143 559 l 1,1,-1
 632 559 l 1,2,-1
 632 439 l 1,3,-1
 143 439 l 1,0,-1
EndSplineSet
EndChar

StartChar: period
Encoding: 46 46 21
Width: 518
GlyphClass: 2
Flags: W
LayerCount: 2
Fore
SplineSet
143 239 m 1,0,-1
 374 239 l 1,1,-1
 374 0 l 1,2,-1
 143 0 l 1,3,-1
 143 239 l 1,0,-1
EndSplineSet
EndChar

StartChar: slash
Encoding: 47 47 22
Width: 792
GlyphClass: 2
Flags: W
LayerCount: 2
Fore
SplineSet
719 1442 m 1,0,-1
 234 -26 l 1,1,-1
 73 -26 l 1,2,-1
 562 1442 l 1,3,-1
 719 1442 l 1,0,-1
EndSplineSet
EndChar

StartChar: zero
Encoding: 48 48 23
Width: 1164
GlyphClass: 2
Flags: W
LayerCount: 2
Fore
SplineSet
131 708 m 0,0,1
 131 1281 131 1281 416 1410 c 0,2,3
 486 1442 486 1442 579 1442 c 128,-1,4
 672 1442 672 1442 740.5 1412 c 128,-1,5
 809 1382 809 1382 859 1330 c 128,-1,6
 909 1278 909 1278 943 1207 c 128,-1,7
 977 1136 977 1136 997 1054 c 0,8,9
 1034 904 1034 904 1034 708 c 0,10,11
 1034 133 1034 133 740 4 c 0,12,13
 672 -26 672 -26 579 -26 c 128,-1,14
 486 -26 486 -26 415.5 6 c 128,-1,15
 345 38 345 38 295 93 c 128,-1,16
 245 148 245 148 213 220.5 c 128,-1,17
 181 293 181 293 163 375 c 0,18,19
 131 521 131 521 131 708 c 0,0,1
829 476 m 0,20,21
 842 579 842 579 842 709 c 128,-1,22
 842 839 842 839 829 943 c 128,-1,23
 816 1047 816 1047 786 1119 c 0,24,25
 724 1268 724 1268 583 1268 c 0,26,27
 369 1268 369 1268 332 924 c 0,28,29
 321 823 321 823 321 709 c 128,-1,30
 321 595 321 595 332 493.5 c 128,-1,31
 343 392 343 392 372 316 c 0,32,33
 435 149 435 149 583 149 c 0,34,35
 788 149 788 149 829 476 c 0,20,21
EndSplineSet
EndChar

StartChar: one
Encoding: 49 49 24
Width: 757
GlyphClass: 2
Flags: W
LayerCount: 2
Fore
SplineSet
369 1024 m 1,0,-1
 370 1100 l 1,1,-1
 372 1196 l 1,2,3
 247 1085 247 1085 87 993 c 1,4,-1
 42 1165 l 1,5,6
 122 1209 122 1209 223 1286 c 128,-1,7
 324 1363 324 1363 350 1382 c 128,-1,8
 376 1401 376 1401 391 1412 c 1,9,-1
 556 1412 l 1,10,-1
 556 0 l 1,11,-1
 368 0 l 1,12,-1
 368 967 l 1,13,-1
 369 1024 l 1,0,-1
EndSplineSet
EndChar

StartChar: two
Encoding: 50 50 25
Width: 1077
GlyphClass: 2
Flags: W
LayerCount: 2
Fore
SplineSet
114 1144 m 1,0,1
 179 1298 179 1298 283 1370 c 128,-1,2
 387 1442 387 1442 548 1442 c 0,3,4
 816 1442 816 1442 907 1232 c 0,5,6
 938 1160 938 1160 938 1080.5 c 128,-1,7
 938 1001 938 1001 918.5 939.5 c 128,-1,8
 899 878 899 878 854 806 c 0,9,10
 772 674 772 674 560 454 c 1,11,-1
 321 170 l 1,12,-1
 968 170 l 1,13,-1
 968 0 l 1,14,-1
 99 0 l 1,15,-1
 99 174 l 1,16,-1
 443 572 l 1,17,18
 586 720 586 720 641 800 c 0,19,20
 746 952 746 952 746 1049 c 0,21,22
 746 1191 746 1191 633 1248 c 0,23,24
 592 1268 592 1268 531 1268 c 128,-1,25
 470 1268 470 1268 427 1249.5 c 128,-1,26
 384 1231 384 1231 355 1202 c 0,27,28
 311 1159 311 1159 278 1077 c 1,29,-1
 114 1144 l 1,0,1
EndSplineSet
EndChar

StartChar: three
Encoding: 51 51 26
Width: 1115
GlyphClass: 2
Flags: W
LayerCount: 2
Fore
SplineSet
95 1257 m 1,0,1
 292 1442 292 1442 525 1442 c 0,2,3
 707 1442 707 1442 830 1345 c 0,4,5
 959 1243 959 1243 959 1072 c 0,6,7
 959 908 959 908 822 798 c 0,8,9
 777 762 777 762 716 736 c 1,10,11
 864 690 864 690 936 572 c 0,12,13
 990 485 990 485 990 388.5 c 128,-1,14
 990 292 990 292 950.5 216 c 128,-1,15
 911 140 911 140 846 88 c 0,16,17
 711 -20 711 -20 516 -20 c 0,18,19
 280 -20 280 -20 101 148 c 1,20,-1
 169 308 l 1,21,22
 276 195 276 195 429 162 c 0,23,24
 475 152 475 152 524.5 152 c 128,-1,25
 574 152 574 152 623.5 166.5 c 128,-1,26
 673 181 673 181 710 210 c 0,27,28
 793 275 793 275 793 394 c 0,29,30
 793 542 793 542 674 604 c 1,31,32
 583 650 583 650 418 650 c 1,33,-1
 364 649 l 1,34,-1
 343 649 l 1,35,-1
 343 814 l 1,36,37
 354 812 354 812 370 812 c 2,38,-1
 406 812 l 2,39,40
 654 812 654 812 732 938 c 0,41,42
 762 986 762 986 762 1047 c 128,-1,43
 762 1108 762 1108 744 1145.5 c 128,-1,44
 726 1183 726 1183 694 1210 c 0,45,46
 626 1268 626 1268 514 1268 c 0,47,48
 368 1268 368 1268 191 1127 c 1,49,-1
 95 1257 l 1,0,1
EndSplineSet
EndChar

StartChar: four
Encoding: 52 52 27
Width: 1149
GlyphClass: 2
Flags: W
LayerCount: 2
Fore
SplineSet
689 0 m 1,0,-1
 689 300 l 1,1,-1
 66 300 l 1,2,-1
 66 504 l 1,3,-1
 673 1412 l 1,4,-1
 875 1412 l 1,5,-1
 875 472 l 1,6,-1
 1074 472 l 1,7,-1
 1074 300 l 1,8,-1
 875 300 l 1,9,-1
 875 0 l 1,10,-1
 689 0 l 1,0,-1
240 472 m 1,11,-1
 689 472 l 1,12,-1
 689 1180 l 1,13,-1
 240 472 l 1,11,-1
EndSplineSet
EndChar

StartChar: five
Encoding: 53 53 28
Width: 1087
GlyphClass: 2
Flags: W
LayerCount: 2
Fore
SplineSet
316 811 m 1,0,1
 431 882 431 882 542.5 882 c 128,-1,2
 654 882 654 882 733 849.5 c 128,-1,3
 812 817 812 817 867 760 c 0,4,5
 981 640 981 640 981 448 c 0,6,7
 981 231 981 231 850 104 c 0,8,9
 717 -26 717 -26 488 -26 c 0,10,11
 277 -26 277 -26 166 106 c 0,12,13
 129 150 129 150 110 208 c 1,14,-1
 228 303 l 1,15,16
 261 229 261 229 344 185 c 0,17,18
 414 149 414 149 495.5 149 c 128,-1,19
 577 149 577 149 633.5 174.5 c 128,-1,20
 690 200 690 200 724 242 c 0,21,22
 788 319 788 319 788 448.5 c 128,-1,23
 788 578 788 578 715 649 c 128,-1,24
 642 720 642 720 506 720 c 256,25,26
 370 720 370 720 274 610 c 1,27,-1
 157 638 l 1,28,-1
 157 1412 l 1,29,-1
 897 1412 l 1,30,-1
 897 1240 l 1,31,-1
 346 1240 l 1,32,-1
 316 811 l 1,0,1
EndSplineSet
EndChar

StartChar: six
Encoding: 54 54 29
Width: 1141
GlyphClass: 2
Flags: W
LayerCount: 2
Fore
SplineSet
927 1207 m 1,0,1
 776 1268 776 1268 679 1268 c 128,-1,2
 582 1268 582 1268 518 1230.5 c 128,-1,3
 454 1193 454 1193 413 1122 c 0,4,5
 340 997 340 997 323 723 c 1,6,7
 394 835 394 835 526 870 c 0,8,9
 572 883 572 883 642 883 c 128,-1,10
 712 883 712 883 786 855 c 128,-1,11
 860 827 860 827 914 772 c 0,12,13
 1031 654 1031 654 1031 449 c 0,14,15
 1031 228 1031 228 900 98 c 1,16,17
 777 -26 777 -26 587 -26 c 0,18,19
 356 -26 356 -26 236 158 c 0,20,21
 128 322 128 322 128 609 c 0,22,23
 128 939 128 939 234 1162 c 1,24,25
 318 1336 318 1336 476 1406 c 0,26,27
 558 1442 558 1442 646 1442 c 0,28,29
 811 1442 811 1442 987 1361 c 1,30,-1
 927 1207 l 1,0,1
584 149 m 0,31,32
 639 149 639 149 684.5 165.5 c 128,-1,33
 730 182 730 182 765 217 c 0,34,35
 842 294 842 294 842 440 c 0,36,37
 842 629 842 629 717 700 c 0,38,39
 670 726 670 726 601 726 c 128,-1,40
 532 726 532 726 482 702.5 c 128,-1,41
 432 679 432 679 398 640 c 0,42,43
 328 561 328 561 328 453 c 0,44,45
 328 327 328 327 398 240 c 0,46,47
 470 149 470 149 584 149 c 0,31,32
EndSplineSet
EndChar

StartChar: seven
Encoding: 55 55 30
Width: 959
GlyphClass: 2
Flags: W
LayerCount: 2
Fore
SplineSet
180 0 m 1,0,-1
 704 1240 l 1,1,-1
 60 1240 l 1,2,-1
 60 1412 l 1,3,-1
 904 1412 l 1,4,-1
 904 1253 l 1,5,-1
 395 0 l 1,6,-1
 180 0 l 1,0,-1
EndSplineSet
EndChar

StartChar: eight
Encoding: 56 56 31
Width: 1163
GlyphClass: 2
Flags: W
LayerCount: 2
Fore
SplineSet
394 744 m 1,0,1
 159 859 159 859 159 1083 c 0,2,3
 159 1224 159 1224 260 1326 c 1,4,5
 377 1442 377 1442 580 1442 c 0,6,7
 770 1442 770 1442 887 1346 c 0,8,9
 1005 1249 1005 1249 1005 1086 c 0,10,11
 1005 974 1005 974 941.5 886.5 c 128,-1,12
 878 799 878 799 757 748 c 1,13,14
 879 684 879 684 931 627 c 0,15,16
 1037 511 1037 511 1037 366 c 0,17,18
 1037 200 1037 200 923 92 c 0,19,20
 798 -26 798 -26 581 -26 c 0,21,22
 386 -26 386 -26 262 68 c 0,23,24
 125 171 125 171 125 358 c 0,25,26
 125 612 125 612 394 744 c 1,0,1
460 168 m 0,27,28
 509 149 509 149 580.5 149 c 128,-1,29
 652 149 652 149 702.5 168 c 128,-1,30
 753 187 753 187 784 218 c 0,31,32
 843 278 843 278 843 372 c 0,33,34
 843 538 843 538 680 624 c 0,35,36
 630 650 630 650 572 663 c 1,37,38
 456 633 456 633 388 554 c 0,39,40
 318 474 318 474 318 366 c 0,41,42
 318 220 318 220 460 168 c 0,27,28
366 1162 m 0,43,44
 349 1127 349 1127 349 1077.5 c 128,-1,45
 349 1028 349 1028 367 985.5 c 128,-1,46
 385 943 385 943 416 912 c 0,47,48
 477 852 477 852 581 833 c 1,49,50
 743 863 743 863 798 989 c 0,51,52
 817 1031 817 1031 817 1078 c 128,-1,53
 817 1125 817 1125 801 1160 c 128,-1,54
 785 1195 785 1195 754 1220 c 0,55,56
 690 1273 690 1273 582 1273 c 0,57,58
 421 1273 421 1273 366 1162 c 0,43,44
EndSplineSet
EndChar

StartChar: nine
Encoding: 57 57 32
Width: 1133
GlyphClass: 2
Flags: W
LayerCount: 2
Fore
SplineSet
231 214 m 1,0,1
 379 149 379 149 464.5 149 c 128,-1,2
 550 149 550 149 608.5 181.5 c 128,-1,3
 667 214 667 214 710 282 c 0,4,5
 798 422 798 422 808 701 c 1,6,7
 740 585 740 585 596 556 c 0,8,9
 553 548 553 548 489.5 548 c 128,-1,10
 426 548 426 548 351.5 576 c 128,-1,11
 277 604 277 604 222 659 c 0,12,13
 105 778 105 778 105 985 c 0,14,15
 105 1203 105 1203 232 1327 c 0,16,17
 351 1442 351 1442 534 1442 c 0,18,19
 733 1442 733 1442 856 1304 c 0,20,21
 1004 1138 1004 1138 1004 768 c 0,22,23
 1004 389 1004 389 861 178 c 0,24,25
 723 -26 723 -26 491 -26 c 0,26,27
 361 -26 361 -26 167 55 c 1,28,-1
 231 214 l 1,0,1
542 701 m 0,29,30
 600 701 600 701 647.5 723 c 128,-1,31
 695 745 695 745 728 782 c 1,32,33
 798 857 798 857 798 970 c 0,34,35
 798 1100 798 1100 727 1184 c 256,36,37
 656 1268 656 1268 542 1268 c 256,38,39
 428 1268 428 1268 362 1192 c 0,40,41
 295 1116 295 1116 295 984 c 0,42,43
 295 854 295 854 360 777 c 0,44,45
 425 701 425 701 542 701 c 0,29,30
EndSplineSet
EndChar

StartChar: colon
Encoding: 58 58 33
Width: 518
GlyphClass: 2
Flags: W
LayerCount: 2
Fore
SplineSet
143 1024 m 1,0,-1
 374 1024 l 1,1,-1
 374 785 l 1,2,-1
 143 785 l 1,3,-1
 143 1024 l 1,0,-1
143 239 m 1,4,-1
 374 239 l 1,5,-1
 374 0 l 1,6,-1
 143 0 l 1,7,-1
 143 239 l 1,4,-1
EndSplineSet
EndChar

StartChar: semicolon
Encoding: 59 59 34
Width: 579
GlyphClass: 2
Flags: W
LayerCount: 2
Fore
SplineSet
97 -233 m 1,0,-1
 207 229 l 1,1,-1
 403 229 l 1,2,-1
 220 -233 l 1,3,-1
 97 -233 l 1,0,-1
191 1024 m 1,4,-1
 422 1024 l 1,5,-1
 422 785 l 1,6,-1
 191 785 l 1,7,-1
 191 1024 l 1,4,-1
EndSplineSet
EndChar

StartChar: less
Encoding: 60 60 35
Width: 1164
GlyphClass: 2
Flags: W
LayerCount: 2
Fore
SplineSet
1025 111 m 1,0,-1
 77 510 l 1,1,-1
 77 651 l 1,2,-1
 1025 1074 l 1,3,-1
 1025 899 l 1,4,-1
 293 585 l 1,5,-1
 1025 289 l 1,6,-1
 1025 111 l 1,0,-1
EndSplineSet
EndChar

StartChar: equal
Encoding: 61 61 36
Width: 1268
GlyphClass: 2
Flags: W
LayerCount: 2
Fore
SplineSet
160 700 m 1,0,-1
 160 860 l 1,1,-1
 1108 860 l 1,2,-1
 1108 700 l 1,3,-1
 160 700 l 1,0,-1
160 308 m 1,4,-1
 160 470 l 1,5,-1
 1108 470 l 1,6,-1
 1108 308 l 1,7,-1
 160 308 l 1,4,-1
EndSplineSet
EndChar

StartChar: greater
Encoding: 62 62 37
Width: 1164
GlyphClass: 2
Flags: W
LayerCount: 2
Fore
SplineSet
139 289 m 1,0,-1
 871 585 l 1,1,-1
 139 899 l 1,2,-1
 139 1074 l 1,3,-1
 1087 651 l 1,4,-1
 1087 510 l 1,5,-1
 139 111 l 1,6,-1
 139 289 l 1,0,-1
EndSplineSet
EndChar

StartChar: question
Encoding: 63 63 38
Width: 882
GlyphClass: 2
Flags: W
LayerCount: 2
Fore
SplineSet
65 1373 m 1,0,1
 224 1442 224 1442 350 1442 c 128,-1,2
 476 1442 476 1442 555 1418 c 128,-1,3
 634 1394 634 1394 689 1348 c 0,4,5
 803 1253 803 1253 803 1086 c 0,6,7
 803 969 803 969 748 884 c 0,8,9
 704 816 704 816 620.5 738 c 128,-1,10
 537 660 537 660 510 632 c 128,-1,11
 483 604 483 604 468 576 c 0,12,13
 442 529 442 529 442 433 c 2,14,-1
 442 363 l 1,15,-1
 283 363 l 1,16,-1
 283 442 l 2,17,18
 283 547 283 547 301 597 c 0,19,20
 331 679 331 679 393 741 c 128,-1,21
 455 803 455 803 491.5 842 c 128,-1,22
 528 881 528 881 554 918 c 0,23,24
 608 997 608 997 608 1064.5 c 128,-1,25
 608 1132 608 1132 583.5 1170 c 128,-1,26
 559 1208 559 1208 523 1230 c 0,27,28
 459 1268 459 1268 356.5 1268 c 128,-1,29
 254 1268 254 1268 95 1198 c 1,30,-1
 65 1373 l 1,0,1
256 211 m 1,31,-1
 469 211 l 1,32,-1
 469 0 l 1,33,-1
 256 0 l 1,34,-1
 256 211 l 1,31,-1
EndSplineSet
EndChar

StartChar: at
Encoding: 64 64 39
Width: 1642
GlyphClass: 2
Flags: W
LayerCount: 2
Fore
SplineSet
1347 72 m 1,0,1
 1099 -77 1099 -77 834 -77 c 0,2,3
 498 -77 498 -77 299 118 c 0,4,5
 98 315 98 315 98 647 c 0,6,7
 98 1007 98 1007 329 1228 c 0,8,9
 552 1442 552 1442 888 1442 c 0,10,11
 1173 1442 1173 1442 1357 1280 c 1,12,13
 1554 1105 1554 1105 1554 807 c 0,14,15
 1554 595 1554 595 1446 448 c 0,16,17
 1337 300 1337 300 1185 300 c 0,18,19
 1109 300 1109 300 1065.5 345.5 c 128,-1,20
 1022 391 1022 391 1019 485 c 1,21,22
 960 397 960 397 921 365 c 0,23,24
 842 300 842 300 766 300 c 128,-1,25
 690 300 690 300 639 321 c 128,-1,26
 588 342 588 342 550 381 c 0,27,28
 469 464 469 464 469 601 c 0,29,30
 469 798 469 798 566 937 c 0,31,32
 674 1090 674 1090 862 1090 c 0,33,34
 968 1090 968 1090 1058 1000 c 1,35,36
 1058 1011 1058 1011 1060.5 1023 c 128,-1,37
 1063 1035 1063 1035 1065 1045 c 2,38,-1
 1069 1068 l 1,39,-1
 1208 1049 l 1,40,-1
 1134 646 l 1,41,42
 1120 580 1120 580 1120 520.5 c 128,-1,43
 1120 461 1120 461 1141.5 437 c 128,-1,44
 1163 413 1163 413 1208 413 c 128,-1,45
 1253 413 1253 413 1293 443.5 c 128,-1,46
 1333 474 1333 474 1364 528 c 0,47,48
 1431 643 1431 643 1431 791.5 c 128,-1,49
 1431 940 1431 940 1388 1035.5 c 128,-1,50
 1345 1131 1345 1131 1270 1195 c 0,51,52
 1123 1322 1123 1322 888 1322 c 0,53,54
 592 1322 592 1322 408 1140 c 0,55,56
 221 955 221 955 221 647 c 0,57,58
 221 364 221 364 388 202 c 0,59,60
 554 42 554 42 837 42 c 0,61,62
 1059 42 1059 42 1316 183 c 1,63,-1
 1347 72 l 1,0,1
782 423 m 0,64,65
 913 423 913 423 970 608 c 0,66,67
 980 642 980 642 987.5 675 c 128,-1,68
 995 708 995 708 1002 733 c 1,69,-1
 1038 940 l 1,70,-1
 969 954 l 2,71,72
 941 959 941 959 917.5 964 c 128,-1,73
 894 969 894 969 880 969 c 0,74,75
 762 969 762 969 686 854 c 0,76,77
 617 750 617 750 618 640 c 0,78,79
 620 423 620 423 782 423 c 0,64,65
EndSplineSet
EndChar

StartChar: A
Encoding: 65 65 40
Width: 1295
GlyphClass: 2
Flags: W
LayerCount: 2
Fore
SplineSet
19 64 m 1,0,-1
 553 1412 l 1,1,-1
 746 1412 l 1,2,-1
 1273 59 l 1,3,-1
 1273 0 l 1,4,-1
 1084 0 l 1,5,-1
 932 396 l 1,6,-1
 349 396 l 1,7,-1
 195 0 l 1,8,-1
 19 0 l 1,9,-1
 19 64 l 1,0,-1
644 1198 m 1,10,-1
 414 568 l 1,11,-1
 869 568 l 1,12,-1
 644 1198 l 1,10,-1
EndSplineSet
EndChar

StartChar: B
Encoding: 66 66 41
Width: 1269
GlyphClass: 2
Flags: W
LayerCount: 2
Fore
SplineSet
892 740 m 1,0,1
 1163 657 1163 657 1163 399 c 0,2,3
 1163 185 1163 185 1005 84 c 0,4,5
 874 0 874 0 648 0 c 2,6,-1
 190 0 l 1,7,-1
 190 1242 l 1,8,-1
 60 1242 l 1,9,-1
 60 1412 l 1,10,-1
 615 1412 l 2,11,12
 992 1412 992 1412 1088 1222 c 0,13,14
 1122 1153 1122 1153 1122 1072 c 128,-1,15
 1122 991 1122 991 1102 940 c 128,-1,16
 1082 889 1082 889 1050 850 c 1,17,18
 988 778 988 778 892 740 c 1,0,1
387 821 m 1,19,-1
 637 821 l 2,20,21
 759 821 759 821 813.5 852 c 128,-1,22
 868 883 868 883 893.5 925.5 c 128,-1,23
 919 968 919 968 919 1037 c 0,24,25
 919 1213 919 1213 739 1236 c 0,26,27
 687 1242 687 1242 631 1242 c 2,28,-1
 387 1242 l 1,29,-1
 387 821 l 1,19,-1
386 647 m 1,30,-1
 386 170 l 1,31,-1
 678 170 l 1,32,33
 817 174 817 174 887.5 232 c 128,-1,34
 958 290 958 290 958 410 c 0,35,36
 958 577 958 577 804 629 c 0,37,38
 751 647 751 647 677 647 c 2,39,-1
 386 647 l 1,30,-1
EndSplineSet
EndChar

StartChar: C
Encoding: 67 67 42
Width: 1236
GlyphClass: 2
Flags: W
LayerCount: 2
Fore
SplineSet
749 149 m 0,0,1
 896 149 896 149 1096 247 c 1,2,-1
 1162 93 l 1,3,4
 926 -26 926 -26 730 -26 c 0,5,6
 412 -26 412 -26 250 201 c 0,7,8
 105 404 105 404 105 735 c 0,9,10
 105 1082 105 1082 306 1272 c 1,11,12
 484 1442 484 1442 730 1442 c 0,13,14
 900 1442 900 1442 1028 1354 c 0,15,16
 1163 1260 1163 1260 1196 1095 c 1,17,-1
 1009 1051 l 1,18,19
 993 1153 993 1153 914 1212 c 1,20,21
 836 1268 836 1268 747.5 1268 c 128,-1,22
 659 1268 659 1268 584.5 1238 c 128,-1,23
 510 1208 510 1208 450 1144 c 0,24,25
 313 1000 313 1000 313 737 c 0,26,27
 313 272 313 272 598 172 c 0,28,29
 663 149 663 149 749 149 c 0,0,1
EndSplineSet
EndChar

StartChar: D
Encoding: 68 68 43
Width: 1400
GlyphClass: 2
Flags: W
LayerCount: 2
Fore
SplineSet
1238 1027 m 0,0,1
 1289 893 1289 893 1289 732.5 c 128,-1,2
 1289 572 1289 572 1263.5 468 c 128,-1,3
 1238 364 1238 364 1191.5 285.5 c 128,-1,4
 1145 207 1145 207 1079.5 152.5 c 128,-1,5
 1014 98 1014 98 934 64 c 0,6,7
 782 0 782 0 568 0 c 2,8,-1
 190 0 l 1,9,-1
 190 1242 l 1,10,-1
 50 1242 l 1,11,-1
 50 1412 l 1,12,-1
 592 1412 l 2,13,14
 1090 1412 1090 1412 1238 1027 c 0,0,1
1080 694 m 0,15,16
 1080 826 1080 826 1053.5 926.5 c 128,-1,17
 1027 1027 1027 1027 969 1097 c 0,18,19
 849 1242 849 1242 595 1242 c 2,20,-1
 385 1242 l 1,21,-1
 385 170 l 1,22,-1
 554 170 l 1,23,24
 830 174 830 174 955 300 c 0,25,26
 1080 425 1080 425 1080 694 c 0,15,16
EndSplineSet
EndChar

StartChar: E
Encoding: 69 69 44
Width: 1138
GlyphClass: 2
Flags: W
LayerCount: 2
Fore
SplineSet
190 1242 m 1,0,-1
 60 1242 l 1,1,-1
 60 1412 l 1,2,-1
 1008 1412 l 1,3,-1
 1008 1242 l 1,4,-1
 386 1242 l 1,5,-1
 386 818 l 1,6,-1
 973 818 l 1,7,-1
 973 643 l 1,8,-1
 386 643 l 1,9,-1
 386 170 l 1,10,-1
 1017 170 l 1,11,-1
 1017 0 l 1,12,-1
 190 0 l 1,13,-1
 190 1242 l 1,0,-1
EndSplineSet
EndChar

StartChar: F
Encoding: 70 70 45
Width: 1076
GlyphClass: 2
Flags: W
LayerCount: 2
Fore
SplineSet
61 1412 m 1,0,-1
 986 1412 l 1,1,-1
 986 1242 l 1,2,-1
 391 1242 l 1,3,-1
 391 789 l 1,4,-1
 950 789 l 1,5,-1
 950 614 l 1,6,-1
 391 614 l 1,7,-1
 391 0 l 1,8,-1
 191 0 l 1,9,-1
 191 1242 l 1,10,-1
 61 1242 l 1,11,-1
 61 1412 l 1,0,-1
EndSplineSet
EndChar

StartChar: G
Encoding: 71 71 46
Width: 1368
GlyphClass: 2
Flags: W
LayerCount: 2
Fore
SplineSet
775 149 m 0,0,1
 897 149 897 149 1027 175 c 1,2,-1
 1041 175 l 1,3,-1
 1041 579 l 1,4,-1
 871 599 l 1,5,-1
 871 751 l 1,6,-1
 1231 751 l 1,7,-1
 1231 54 l 1,8,9
 981 -26 981 -26 784 -26 c 128,-1,10
 587 -26 587 -26 465 28.5 c 128,-1,11
 343 83 343 83 263 180 c 0,12,13
 105 372 105 372 105 700 c 0,14,15
 105 1090 105 1090 316 1282 c 1,16,17
 494 1442 494 1442 763 1442 c 0,18,19
 1066 1442 1066 1442 1170 1214 c 0,20,21
 1194 1162 1194 1162 1203 1093 c 1,22,-1
 1027 1051 l 1,23,24
 1002 1161 1002 1161 931.5 1214.5 c 128,-1,25
 861 1268 861 1268 772 1268 c 128,-1,26
 683 1268 683 1268 602 1242 c 128,-1,27
 521 1216 521 1216 456 1152 c 0,28,29
 313 1010 313 1010 313 704 c 0,30,31
 313 149 313 149 775 149 c 0,0,1
EndSplineSet
EndChar

StartChar: H
Encoding: 72 72 47
Width: 1417
GlyphClass: 2
Flags: W
LayerCount: 2
Fore
SplineSet
191 1412 m 1,0,-1
 388 1412 l 1,1,-1
 388 818 l 1,2,-1
 1029 818 l 1,3,-1
 1029 1412 l 1,4,-1
 1226 1412 l 1,5,-1
 1226 0 l 1,6,-1
 1029 0 l 1,7,-1
 1029 640 l 1,8,-1
 388 640 l 1,9,-1
 388 0 l 1,10,-1
 191 0 l 1,11,-1
 191 1412 l 1,0,-1
EndSplineSet
EndChar

StartChar: I
Encoding: 73 73 48
Width: 577
GlyphClass: 2
Flags: W
LayerCount: 2
Fore
SplineSet
191 0 m 1,0,-1
 191 1412 l 1,1,-1
 387 1412 l 1,2,-1
 387 0 l 1,3,-1
 191 0 l 1,0,-1
EndSplineSet
EndChar

StartChar: J
Encoding: 74 74 49
Width: 575
GlyphClass: 2
Flags: W
LayerCount: 2
Fore
SplineSet
-117 -57 m 1,0,1
 -29 -102 -29 -102 31 -102 c 0,2,3
 191 -102 191 -102 191 125 c 2,4,-1
 191 1242 l 1,5,-1
 31 1242 l 1,6,-1
 31 1412 l 1,7,-1
 385 1412 l 1,8,-1
 385 126 l 2,9,10
 385 -71 385 -71 294 -177 c 0,11,12
 212 -273 212 -273 76 -273 c 0,13,14
 -36 -273 -36 -273 -152 -208 c 1,15,-1
 -117 -57 l 1,0,1
EndSplineSet
EndChar

StartChar: K
Encoding: 75 75 50
Width: 1231
GlyphClass: 2
Flags: W
LayerCount: 2
Fore
SplineSet
1244 0 m 1,0,-1
 988 0 l 1,1,-1
 443 706 l 1,2,-1
 387 636 l 1,3,-1
 387 0 l 1,4,-1
 191 0 l 1,5,-1
 191 1412 l 1,6,-1
 387 1412 l 1,7,-1
 387 769 l 1,8,-1
 494 896 l 1,9,-1
 948 1412 l 1,10,-1
 1200 1412 l 1,11,-1
 626 785 l 1,12,-1
 1244 0 l 1,0,-1
EndSplineSet
EndChar

StartChar: L
Encoding: 76 76 51
Width: 1025
GlyphClass: 2
Flags: W
LayerCount: 2
Fore
SplineSet
190 0 m 1,0,-1
 190 1412 l 1,1,-1
 387 1412 l 1,2,-1
 387 170 l 1,3,-1
 991 170 l 1,4,-1
 991 0 l 1,5,-1
 190 0 l 1,0,-1
EndSplineSet
EndChar

StartChar: M
Encoding: 77 77 52
Width: 1789
GlyphClass: 2
Flags: W
LayerCount: 2
Fore
SplineSet
373 1135 m 1,0,1
 379 817 379 817 379 728 c 2,2,-1
 379 0 l 1,3,-1
 190 0 l 1,4,-1
 190 1412 l 1,5,-1
 505 1412 l 1,6,-1
 889 252 l 1,7,-1
 1296 1412 l 1,8,-1
 1599 1412 l 1,9,-1
 1599 0 l 1,10,-1
 1404 0 l 1,11,-1
 1404 796 l 2,12,13
 1404 934 1404 934 1408 1146 c 1,14,-1
 1384 1150 l 1,15,-1
 971 0 l 1,16,-1
 797 0 l 1,17,-1
 398 1139 l 1,18,-1
 373 1135 l 1,0,1
EndSplineSet
EndChar

StartChar: N
Encoding: 78 78 53
Width: 1487
GlyphClass: 2
Flags: W
LayerCount: 2
Fore
SplineSet
1118 310 m 1,0,1
 1112 502 1112 502 1112 616 c 2,2,-1
 1112 1412 l 1,3,-1
 1296 1412 l 1,4,-1
 1296 0 l 1,5,-1
 1059 0 l 1,6,-1
 387 1123 l 1,7,-1
 366 1118 l 1,8,9
 369 1029 369 1029 370 924 c 128,-1,10
 371 819 371 819 371.5 781 c 128,-1,11
 372 743 372 743 372 714 c 2,12,-1
 372 0 l 1,13,-1
 191 0 l 1,14,-1
 191 1412 l 1,15,-1
 437 1412 l 1,16,-1
 1096 305 l 1,17,-1
 1118 310 l 1,0,1
EndSplineSet
EndChar

StartChar: O
Encoding: 79 79 54
Width: 1483
GlyphClass: 2
Flags: W
LayerCount: 2
Fore
SplineSet
1036 34 m 0,0,1
 916 -26 916 -26 771 -26 c 128,-1,2
 626 -26 626 -26 534.5 1.5 c 128,-1,3
 443 29 443 29 373 78 c 128,-1,4
 303 127 303 127 253.5 195 c 128,-1,5
 204 263 204 263 172 344 c 0,6,7
 112 500 112 500 112 703 c 0,8,9
 112 1021 112 1021 258 1220 c 1,10,11
 423 1442 423 1442 742 1442 c 256,12,13
 1061 1442 1061 1442 1226 1220 c 1,14,15
 1371 1022 1371 1022 1371 703 c 0,16,17
 1371 202 1371 202 1036 34 c 0,0,1
742 1268 m 0,18,19
 319 1268 319 1268 319 708 c 0,20,21
 319 314 319 314 536 194 c 0,22,23
 617 149 617 149 741.5 149 c 128,-1,24
 866 149 866 149 947.5 194 c 128,-1,25
 1029 239 1029 239 1077 316 c 0,26,27
 1164 456 1164 456 1164 708 c 0,28,29
 1164 1268 1164 1268 742 1268 c 0,18,19
EndSplineSet
EndChar

StartChar: P
Encoding: 80 80 55
Width: 1160
GlyphClass: 2
Flags: W
LayerCount: 2
Fore
SplineSet
61 1412 m 1,0,-1
 608 1412 l 2,1,2
 959 1412 959 1412 1064 1198 c 0,3,4
 1101 1121 1101 1121 1101 1023 c 128,-1,5
 1101 925 1101 925 1075 848.5 c 128,-1,6
 1049 772 1049 772 988 714 c 0,7,8
 853 587 853 587 571 587 c 2,9,-1
 387 587 l 1,10,-1
 387 0 l 1,11,-1
 191 0 l 1,12,-1
 191 1242 l 1,13,-1
 61 1242 l 1,14,-1
 61 1412 l 1,0,-1
387 757 m 1,15,-1
 482 757 l 2,16,17
 620 757 620 757 672.5 765 c 128,-1,18
 725 773 725 773 764.5 788 c 128,-1,19
 804 803 804 803 834 832 c 0,20,21
 896 892 896 892 896 1010 c 0,22,23
 896 1204 896 1204 711 1234 c 0,24,25
 658 1242 658 1242 601 1242 c 2,26,-1
 387 1242 l 1,27,-1
 387 757 l 1,15,-1
EndSplineSet
EndChar

StartChar: Q
Encoding: 81 81 56
Width: 1467
GlyphClass: 2
Flags: W
LayerCount: 2
Fore
SplineSet
752 -24 m 1,0,1
 724 -26 724 -26 698 -26 c 0,2,3
 428 -26 428 -26 272 166 c 0,4,5
 111 363 111 363 111 703 c 0,6,7
 111 1017 111 1017 260 1220 c 1,8,9
 425 1442 425 1442 728 1442 c 0,10,11
 1145 1442 1145 1442 1290 1080 c 0,12,13
 1352 925 1352 925 1352 722 c 0,14,15
 1352 432 1352 432 1204 229 c 0,16,17
 1148 153 1148 153 1064 92 c 1,18,19
 1234 46 1234 46 1362 -25 c 1,20,-1
 1305 -180 l 1,21,22
 1062 -84 1062 -84 752 -24 c 1,0,1
408 319 m 0,23,24
 514 149 514 149 730 149 c 0,25,26
 1030 149 1030 149 1118 456 c 0,27,28
 1149 566 1149 566 1149 701 c 128,-1,29
 1149 836 1149 836 1123 940.5 c 128,-1,30
 1097 1045 1097 1045 1045 1118 c 0,31,32
 937 1268 937 1268 733 1268 c 0,33,34
 441 1268 441 1268 351 954 c 0,35,36
 319 842 319 842 319 718 c 0,37,38
 319 462 319 462 408 319 c 0,23,24
EndSplineSet
EndChar

StartChar: R
Encoding: 82 82 57
Width: 1284
GlyphClass: 2
Flags: W
LayerCount: 2
Fore
SplineSet
1113 1043 m 0,0,1
 1113 791 1113 791 854 692 c 1,2,3
 1001 657 1001 657 1054 571 c 0,4,5
 1079 529 1079 529 1090.5 473.5 c 128,-1,6
 1102 418 1102 418 1112 348 c 0,7,8
 1143 131 1143 131 1183 0 c 1,9,-1
 973 0 l 1,10,11
 952 109 952 109 940.5 196.5 c 128,-1,12
 929 284 929 284 917 351.5 c 128,-1,13
 905 419 905 419 888.5 467.5 c 128,-1,14
 872 516 872 516 842 547 c 0,15,16
 782 607 782 607 635 607 c 2,17,-1
 387 607 l 1,18,-1
 387 0 l 1,19,-1
 191 0 l 1,20,-1
 191 1242 l 1,21,-1
 61 1242 l 1,22,-1
 61 1412 l 1,23,-1
 624 1412 l 2,24,25
 957 1412 957 1412 1071 1219 c 0,26,27
 1113 1148 1113 1148 1113 1043 c 0,0,1
386 755 m 1,28,-1
 618 755 l 2,29,30
 824 755 824 755 886 896 c 0,31,32
 909 946 909 946 909 1021.5 c 128,-1,33
 909 1097 909 1097 880 1141.5 c 128,-1,34
 851 1186 851 1186 805 1208 c 0,35,36
 737 1242 737 1242 592 1242 c 2,37,-1
 386 1242 l 1,38,-1
 386 755 l 1,28,-1
EndSplineSet
EndChar

StartChar: S
Encoding: 83 83 58
Width: 1095
GlyphClass: 2
Flags: W
LayerCount: 2
Fore
SplineSet
151 249 m 1,0,1
 341 149 341 149 489 149 c 0,2,3
 724 149 724 149 786 290 c 0,4,5
 804 333 804 333 804 383 c 0,6,7
 804 480 804 480 734 538 c 0,8,9
 670 590 670 590 532 639.5 c 128,-1,10
 394 689 394 689 321.5 731.5 c 128,-1,11
 249 774 249 774 204 824 c 0,12,13
 120 919 120 919 120 1070 c 0,14,15
 120 1246 120 1246 248 1347 c 0,16,17
 368 1442 368 1442 561 1442 c 0,18,19
 768 1442 768 1442 975 1305 c 1,20,-1
 898 1159 l 1,21,22
 727 1268 727 1268 584 1268 c 0,23,24
 311 1268 311 1268 311 1074 c 0,25,26
 311 974 311 974 371 922 c 0,27,28
 429 871 429 871 572 823.5 c 128,-1,29
 715 776 715 776 796 730 c 128,-1,30
 877 684 877 684 921 634 c 0,31,32
 994 551 994 551 994 401 c 0,33,34
 994 203 994 203 864 88.5 c 128,-1,35
 734 -26 734 -26 501 -26 c 0,36,37
 304 -26 304 -26 87 93 c 1,38,-1
 151 249 l 1,0,1
EndSplineSet
EndChar

StartChar: T
Encoding: 84 84 59
Width: 1140
GlyphClass: 2
Flags: W
LayerCount: 2
Fore
SplineSet
668 0 m 1,0,-1
 473 0 l 1,1,-1
 473 1242 l 1,2,-1
 35 1242 l 1,3,-1
 35 1412 l 1,4,-1
 1106 1412 l 1,5,-1
 1106 1242 l 1,6,-1
 668 1242 l 1,7,-1
 668 0 l 1,0,-1
EndSplineSet
EndChar

StartChar: U
Encoding: 85 85 60
Width: 1441
GlyphClass: 2
Flags: W
LayerCount: 2
Fore
SplineSet
1266 1412 m 1,0,-1
 1266 524 l 2,1,2
 1266 276 1266 276 1115 125 c 128,-1,3
 964 -26 964 -26 721 -26 c 0,4,5
 473 -26 473 -26 326 114 c 1,6,7
 174 261 174 261 174 531 c 2,8,-1
 174 1412 l 1,9,-1
 370 1412 l 1,10,-1
 370 519 l 2,11,12
 370 315 370 315 484 223 c 0,13,14
 573 150 573 150 725 150 c 0,15,16
 982 150 982 150 1050 362 c 0,17,18
 1073 431 1073 431 1073 524 c 2,19,-1
 1073 1412 l 1,20,-1
 1266 1412 l 1,0,-1
EndSplineSet
EndChar

StartChar: V
Encoding: 86 86 61
Width: 1212
GlyphClass: 2
Flags: W
LayerCount: 2
Fore
SplineSet
1000 1412 m 1,0,-1
 1205 1412 l 1,1,-1
 706 0 l 1,2,-1
 500 0 l 1,3,-1
 15 1412 l 1,4,-1
 229 1412 l 1,5,-1
 601 194 l 1,6,-1
 612 194 l 1,7,-1
 757 641 l 1,8,-1
 1000 1412 l 1,0,-1
EndSplineSet
EndChar

StartChar: W
Encoding: 87 87 62
Width: 1898
GlyphClass: 2
Flags: W
LayerCount: 2
Fore
SplineSet
1068 1412 m 1,0,-1
 1369 240 l 1,1,-1
 1390 240 l 1,2,-1
 1490 707 l 1,3,-1
 1666 1412 l 1,4,-1
 1874 1412 l 1,5,-1
 1486 0 l 1,6,-1
 1285 0 l 1,7,-1
 1084 735 l 1,8,-1
 961 1219 l 1,9,-1
 951 1219 l 1,10,-1
 828 735 l 1,11,-1
 627 0 l 1,12,-1
 426 0 l 1,13,-1
 38 1412 l 1,14,-1
 246 1412 l 1,15,-1
 422 707 l 1,16,-1
 522 240 l 1,17,-1
 543 240 l 1,18,-1
 844 1412 l 1,19,-1
 1068 1412 l 1,0,-1
EndSplineSet
EndChar

StartChar: X
Encoding: 88 88 63
Width: 1261
GlyphClass: 2
Flags: W
LayerCount: 2
Fore
SplineSet
1242 0 m 1,0,-1
 1003 0 l 1,1,-1
 624 599 l 1,2,-1
 235 0 l 1,3,-1
 12 0 l 1,4,-1
 509 737 l 1,5,-1
 57 1412 l 1,6,-1
 291 1412 l 1,7,-1
 640 878 l 1,8,-1
 987 1412 l 1,9,-1
 1212 1412 l 1,10,-1
 754 738 l 1,11,-1
 1242 0 l 1,0,-1
EndSplineSet
EndChar

StartChar: Y
Encoding: 89 89 64
Width: 1174
GlyphClass: 2
Flags: W
LayerCount: 2
Fore
SplineSet
594 723 m 1,0,-1
 963 1412 l 1,1,-1
 1183 1412 l 1,2,-1
 687 547 l 1,3,-1
 687 0 l 1,4,-1
 487 0 l 1,5,-1
 487 547 l 1,6,-1
 -9 1412 l 1,7,-1
 223 1412 l 1,8,-1
 594 723 l 1,0,-1
EndSplineSet
EndChar

StartChar: Z
Encoding: 90 90 65
Width: 1173
GlyphClass: 2
Flags: W
LayerCount: 2
Fore
SplineSet
1082 0 m 1,0,-1
 89 0 l 1,1,-1
 89 169 l 1,2,-1
 831 1242 l 1,3,-1
 110 1242 l 1,4,-1
 110 1412 l 1,5,-1
 1064 1412 l 1,6,-1
 1064 1235 l 1,7,-1
 320 170 l 1,8,-1
 1082 170 l 1,9,-1
 1082 0 l 1,0,-1
EndSplineSet
EndChar

StartChar: bracketleft
Encoding: 91 91 66
Width: 609
GlyphClass: 2
Flags: W
LayerCount: 2
Fore
SplineSet
540 -272 m 1,0,-1
 172 -272 l 1,1,-1
 172 1442 l 1,2,-1
 540 1442 l 1,3,-1
 540 1308 l 1,4,-1
 344 1308 l 1,5,-1
 344 -135 l 1,6,-1
 540 -135 l 1,7,-1
 540 -272 l 1,0,-1
EndSplineSet
EndChar

StartChar: backslash
Encoding: 92 92 67
Width: 792
GlyphClass: 2
Flags: W
LayerCount: 2
Fore
SplineSet
231 1412 m 1,0,1
 352 1053 352 1053 473.5 697.5 c 128,-1,2
 595 342 595 342 717 -16 c 1,3,-1
 560 -16 l 1,4,-1
 73 1412 l 1,5,-1
 231 1412 l 1,0,1
EndSplineSet
EndChar

StartChar: bracketright
Encoding: 93 93 68
Width: 610
GlyphClass: 2
Flags: W
LayerCount: 2
Fore
SplineSet
70 -135 m 1,0,-1
 265 -135 l 1,1,-1
 265 1308 l 1,2,-1
 70 1308 l 1,3,-1
 70 1442 l 1,4,-1
 438 1442 l 1,5,-1
 438 -272 l 1,6,-1
 70 -272 l 1,7,-1
 70 -135 l 1,0,-1
EndSplineSet
EndChar

StartChar: asciicircum
Encoding: 94 94 69
Width: 1101
GlyphClass: 2
Flags: W
LayerCount: 2
Fore
SplineSet
100 523 m 1,0,-1
 485 1381 l 1,1,-1
 614 1381 l 1,2,-1
 996 523 l 1,3,-1
 824 523 l 1,4,-1
 548 1172 l 1,5,-1
 271 523 l 1,6,-1
 100 523 l 1,0,-1
EndSplineSet
EndChar

StartChar: underscore
Encoding: 95 95 70
Width: 1116
GlyphClass: 2
Flags: W
LayerCount: 2
Fore
SplineSet
1012 -273 m 1,0,-1
 105 -273 l 1,1,-1
 105 -145 l 1,2,-1
 1012 -145 l 1,3,-1
 1012 -273 l 1,0,-1
EndSplineSet
EndChar

StartChar: grave
Encoding: 96 96 71
Width: 816
GlyphClass: 2
Flags: W
LayerCount: 2
Fore
SplineSet
435 1164 m 1,0,-1
 162 1473 l 1,1,-1
 392 1473 l 1,2,-1
 564 1164 l 1,3,-1
 435 1164 l 1,0,-1
EndSplineSet
EndChar

StartChar: a
Encoding: 97 97 72
Width: 1039
GlyphClass: 2
Flags: W
LayerCount: 2
Fore
SplineSet
731 159 m 1,0,1
 621 -17 621 -17 405 -17 c 0,2,3
 172 -17 172 -17 100 148 c 0,4,5
 77 201 77 201 77 250 c 128,-1,6
 77 299 77 299 84.5 334.5 c 128,-1,7
 92 370 92 370 109 404 c 0,8,9
 188 565 188 565 429 592 c 0,10,11
 512 602 512 602 653 602 c 2,12,-1
 707 602 l 1,13,-1
 707 673 l 2,14,15
 707 819 707 819 596 850 c 0,16,17
 563 860 563 860 524 860 c 128,-1,18
 485 860 485 860 441 851 c 128,-1,19
 397 842 397 842 355 828 c 0,20,21
 270 798 270 798 209 761 c 1,22,-1
 154 883 l 1,23,24
 283 963 283 963 436 991 c 0,25,26
 486 1000 486 1000 545.5 1000 c 128,-1,27
 605 1000 605 1000 669.5 982.5 c 128,-1,28
 734 965 734 965 782 927 c 0,29,30
 887 845 887 845 887 685 c 2,31,-1
 887 289 l 2,32,33
 887 106 887 106 910 0 c 1,34,-1
 741 0 l 1,35,36
 736 30 736 30 731 159 c 1,0,1
417 122 m 0,37,38
 579 122 579 122 646 202 c 1,39,40
 682 241 682 241 691 291 c 1,41,42
 706 365 706 365 706 471 c 1,43,-1
 677 471 l 2,44,45
 492 471 492 471 415 446 c 128,-1,46
 338 421 338 421 298.5 379 c 128,-1,47
 259 337 259 337 259 264 c 0,48,49
 259 171 259 171 346 134 c 0,50,51
 375 122 375 122 417 122 c 0,37,38
EndSplineSet
EndChar

StartChar: b
Encoding: 98 98 73
Width: 1158
GlyphClass: 2
Flags: W
LayerCount: 2
Fore
SplineSet
336 132 m 1,0,1
 323 68 323 68 320 0 c 1,2,-1
 158 0 l 1,3,-1
 158 1215 l 1,4,-1
 56 1215 l 1,5,-1
 36 1357 l 1,6,-1
 345 1357 l 1,7,-1
 345 1016 l 1,8,-1
 342 855 l 1,9,10
 451 1000 451 1000 622 1000 c 0,11,12
 842 1000 842 1000 956 852 c 0,13,14
 1058 721 1058 721 1058 502 c 0,15,16
 1058 133 1058 133 818 22 c 0,17,18
 734 -17 734 -17 615 -17 c 0,19,20
 502 -17 502 -17 402 62 c 1,21,22
 367 91 367 91 336 132 c 1,0,1
345 338 m 2,23,24
 345 260 345 260 410 197 c 0,25,26
 487 122 487 122 619 122 c 0,27,28
 750 122 750 122 818 236 c 0,29,30
 876 332 876 332 876 496 c 0,31,32
 876 746 876 746 744 828 c 1,33,34
 692 859 692 859 626 859 c 128,-1,35
 560 859 560 859 512 839 c 128,-1,36
 464 819 464 819 426 788 c 0,37,38
 345 721 345 721 345 650 c 2,39,-1
 345 338 l 2,23,24
EndSplineSet
EndChar

StartChar: c
Encoding: 99 99 74
Width: 960
GlyphClass: 2
Flags: W
LayerCount: 2
Fore
SplineSet
547 122 m 0,0,1
 685 122 685 122 805 208 c 1,2,-1
 862 83 l 1,3,4
 709 -17 709 -17 530 -17 c 0,5,6
 346 -17 346 -17 231 104 c 0,7,8
 98 245 98 245 98 502 c 0,9,10
 98 740 98 740 242 878 c 0,11,12
 368 1000 368 1000 548 1000 c 0,13,14
 748 1000 748 1000 845 858 c 0,15,16
 880 807 880 807 896 734 c 1,17,-1
 737 708 l 1,18,19
 699 859 699 859 551 859 c 0,20,21
 445 859 445 859 370 776 c 0,22,23
 283 680 283 680 283 508 c 0,24,25
 283 122 283 122 547 122 c 0,0,1
EndSplineSet
EndChar

StartChar: d
Encoding: 100 100 75
Width: 1159
GlyphClass: 2
Flags: W
LayerCount: 2
Fore
SplineSet
536 1000 m 0,0,1
 707 1000 707 1000 816 855 c 1,2,-1
 813 1016 l 1,3,-1
 813 1215 l 1,4,-1
 710 1215 l 1,5,-1
 690 1357 l 1,6,-1
 1000 1357 l 1,7,-1
 1000 0 l 1,8,-1
 838 0 l 1,9,-1
 831 53 l 2,10,11
 828 76 828 76 826 98 c 128,-1,12
 824 120 824 120 822 132 c 1,13,14
 736 21 736 21 612 -8 c 0,15,16
 576 -17 576 -17 543 -17 c 0,17,18
 314 -17 314 -17 202 131 c 0,19,20
 100 266 100 266 100 502 c 0,21,22
 100 846 100 846 336 960 c 0,23,24
 419 1000 419 1000 536 1000 c 0,0,1
545 859 m 0,25,26
 282 859 282 859 282 496 c 0,27,28
 282 241 282 241 420 153 c 0,29,30
 468 122 468 122 539.5 122 c 128,-1,31
 611 122 611 122 663 143.5 c 128,-1,32
 715 165 715 165 748 197 c 0,33,34
 813 260 813 260 813 338 c 2,35,-1
 813 650 l 2,36,37
 813 721 813 721 732 788 c 0,38,39
 646 859 646 859 545 859 c 0,25,26
EndSplineSet
EndChar

StartChar: e
Encoding: 101 101 76
Width: 1043
GlyphClass: 2
Flags: W
LayerCount: 2
Fore
SplineSet
868 207 m 1,0,-1
 925 79 l 1,1,2
 745 -17 745 -17 567 -17 c 0,3,4
 362 -17 362 -17 237 106 c 0,5,6
 99 242 99 242 99 490 c 0,7,8
 99 707 99 707 204 846 c 0,9,10
 321 1000 321 1000 538 1000 c 0,11,12
 743 1000 743 1000 852 865 c 1,13,14
 951 744 951 744 951 544 c 2,15,-1
 951 463 l 1,16,-1
 285 463 l 1,17,-1
 285 445 l 2,18,19
 285 282 285 282 372 198 c 1,20,21
 451 120 451 120 586.5 120 c 128,-1,22
 722 120 722 120 868 207 c 1,0,-1
755 591 m 1,23,24
 745 859 745 859 534 859 c 0,25,26
 367 859 367 859 310 712 c 0,27,28
 291 661 291 661 291 591 c 1,29,-1
 755 591 l 1,23,24
EndSplineSet
EndChar

StartChar: f
Encoding: 102 102 77
Width: 686
GlyphClass: 2
Flags: W
LayerCount: 2
Fore
SplineSet
685 1185 m 1,0,1
 607 1200 607 1200 561 1200 c 128,-1,2
 515 1200 515 1200 487.5 1190 c 128,-1,3
 460 1180 460 1180 445 1160 c 0,4,5
 420 1127 420 1127 420 1042 c 2,6,-1
 420 984 l 1,7,-1
 649 984 l 1,8,-1
 649 840 l 1,9,-1
 420 840 l 1,10,-1
 420 0 l 1,11,-1
 231 0 l 1,12,-1
 231 840 l 1,13,-1
 43 840 l 1,14,-1
 43 966 l 1,15,-1
 232 983 l 1,16,-1
 232 1021 l 2,17,18
 232 1195 232 1195 294 1271 c 0,19,20
 364 1356 364 1356 535 1356 c 0,21,22
 614 1356 614 1356 709 1331 c 1,23,-1
 685 1185 l 1,0,1
EndSplineSet
EndChar

StartChar: g
Encoding: 103 103 78
Width: 1139
GlyphClass: 2
Flags: W
LayerCount: 2
Fore
SplineSet
909 780 m 1,0,1
 950 727 950 727 950 639.5 c 128,-1,2
 950 552 950 552 914.5 485.5 c 128,-1,3
 879 419 879 419 820 376 c 0,4,5
 708 295 708 295 532 295 c 0,6,7
 429 295 429 295 347 320 c 1,8,9
 289 256 289 256 289 214 c 0,10,11
 289 180 289 180 300 170 c 0,12,13
 321 151 321 151 377 151 c 2,14,-1
 524 151 l 2,15,16
 949 151 949 151 1037 -2 c 0,17,18
 1060 -42 1060 -42 1060 -97 c 0,19,20
 1060 -290 1060 -290 930.5 -386.5 c 128,-1,21
 801 -483 801 -483 549 -495 c 1,22,23
 356 -495 356 -495 227 -425 c 0,24,25
 96 -354 96 -354 96 -250 c 0,26,27
 96 -160 96 -160 176 -60 c 0,28,29
 205 -24 205 -24 245 7 c 1,30,-1
 242 23 l 1,31,32
 167 28 167 28 132 94 c 0,33,34
 118 119 118 119 118 155 c 0,35,36
 118 262 118 262 251 394 c 1,37,38
 106 481 106 481 106 635 c 0,39,40
 106 780 106 780 212 884 c 1,41,42
 332 1000 332 1000 514.5 1000 c 128,-1,43
 697 1000 697 1000 816 903 c 1,44,45
 955 996 955 996 1079 999 c 1,46,-1
 1109 794 l 1,47,-1
 1080 797 l 2,48,49
 1068 799 1068 799 1056.5 799 c 128,-1,50
 1045 799 1045 799 1028 800 c 0,51,52
 981 801 981 801 909 780 c 1,0,1
279 -239 m 0,53,54
 279 -341 279 -341 553 -341 c 0,55,56
 690 -341 690 -341 787 -283 c 0,57,58
 880 -227 880 -227 880 -95 c 0,59,60
 880 -2 880 -2 558 -2 c 2,61,-1
 463 -2 l 2,62,63
 416 -2 416 -2 367 -1 c 1,64,65
 304 -73 304 -73 284 -186 c 0,66,67
 279 -217 279 -217 279 -239 c 0,53,54
301 746 m 0,68,69
 279 703 279 703 279 649.5 c 128,-1,70
 279 596 279 596 294 557.5 c 128,-1,71
 309 519 309 519 340 492 c 0,72,73
 406 433 406 433 530 433 c 0,74,75
 734 433 734 433 774 573 c 0,76,77
 786 613 786 613 786 653 c 128,-1,78
 786 693 786 693 773.5 730.5 c 128,-1,79
 761 768 761 768 732 798 c 0,80,81
 668 864 668 864 536 864 c 0,82,83
 362 864 362 864 301 746 c 0,68,69
EndSplineSet
EndChar

StartChar: h
Encoding: 104 104 79
Width: 1149
GlyphClass: 2
Flags: W
LayerCount: 2
Fore
SplineSet
816 614 m 2,0,1
 816 859 816 859 608 859 c 0,2,3
 460 859 460 859 392 751 c 0,4,5
 348 680 348 680 348 526 c 2,6,-1
 348 0 l 1,7,-1
 159 0 l 1,8,-1
 159 1215 l 1,9,-1
 57 1215 l 1,10,-1
 37 1357 l 1,11,-1
 348 1357 l 1,12,-1
 348 1044 l 1,13,-1
 346 856 l 1,14,15
 483 1000 483 1000 657 1000 c 128,-1,16
 831 1000 831 1000 916.5 901 c 128,-1,17
 1002 802 1002 802 1002 624 c 2,18,-1
 1002 0 l 1,19,-1
 816 0 l 1,20,-1
 816 614 l 2,0,1
EndSplineSet
EndChar

StartChar: i
Encoding: 105 105 80
Width: 552
GlyphClass: 2
Flags: W
LayerCount: 2
Fore
SplineSet
393 0 m 1,0,-1
 207 0 l 1,1,-1
 207 840 l 1,2,-1
 55 840 l 1,3,-1
 55 984 l 1,4,-1
 393 984 l 1,5,-1
 393 0 l 1,0,-1
411 1323 m 1,6,-1
 411 1157 l 1,7,-1
 189 1157 l 1,8,-1
 189 1323 l 1,9,-1
 411 1323 l 1,6,-1
EndSplineSet
EndChar

StartChar: j
Encoding: 106 106 81
Width: 558
GlyphClass: 2
Flags: W
LayerCount: 2
Fore
SplineSet
-3 -261 m 1,0,1
 54 -278 54 -278 87.5 -278 c 128,-1,2
 121 -278 121 -278 143 -271.5 c 128,-1,3
 165 -265 165 -265 180 -248 c 0,4,5
 210 -212 210 -212 210 -127 c 2,6,-1
 210 840 l 1,7,-1
 59 840 l 1,8,-1
 59 984 l 1,9,-1
 399 984 l 1,10,-1
 399 -124 l 2,11,12
 399 -337 399 -337 254 -404 c 0,13,14
 202 -429 202 -429 128 -429 c 128,-1,15
 54 -429 54 -429 -3 -408 c 1,16,-1
 -3 -261 l 1,0,1
420 1323 m 1,17,-1
 420 1157 l 1,18,-1
 199 1157 l 1,19,-1
 199 1323 l 1,20,-1
 420 1323 l 1,17,-1
EndSplineSet
EndChar

StartChar: k
Encoding: 107 107 82
Width: 1041
GlyphClass: 2
Flags: W
LayerCount: 2
Fore
SplineSet
999 984 m 1,0,1
 914 694 914 694 676 533 c 1,2,-1
 1028 0 l 1,3,-1
 817 0 l 1,4,-1
 517 473 l 1,5,-1
 348 387 l 1,6,-1
 348 0 l 1,7,-1
 158 0 l 1,8,-1
 158 1215 l 1,9,-1
 56 1215 l 1,10,-1
 36 1357 l 1,11,-1
 348 1357 l 1,12,-1
 348 551 l 1,13,-1
 478 620 l 1,14,15
 713 746 713 746 803 984 c 1,16,-1
 999 984 l 1,0,1
EndSplineSet
EndChar

StartChar: l
Encoding: 108 108 83
Width: 563
GlyphClass: 2
Flags: W
LayerCount: 2
Fore
SplineSet
369 1357 m 1,0,-1
 369 370 l 2,1,2
 369 293 369 293 371.5 246.5 c 128,-1,3
 374 200 374 200 388.5 174 c 128,-1,4
 403 148 403 148 434.5 139.5 c 128,-1,5
 466 131 466 131 524 131 c 1,6,-1
 494 -17 l 1,7,8
 273 -17 273 -17 219 86 c 0,9,10
 185 151 185 151 182.5 247.5 c 128,-1,11
 180 344 180 344 180 421 c 2,12,-1
 180 1215 l 1,13,-1
 78 1215 l 1,14,-1
 58 1357 l 1,15,-1
 369 1357 l 1,0,-1
EndSplineSet
EndChar

StartChar: m
Encoding: 109 109 84
Width: 1817
GlyphClass: 2
Flags: W
LayerCount: 2
Fore
SplineSet
684 1000 m 0,0,1
 902 1000 902 1000 997 832 c 1,2,3
 1047 907 1047 907 1104 939 c 0,4,5
 1211 1000 1211 1000 1299 1000 c 128,-1,6
 1387 1000 1387 1000 1450 983.5 c 128,-1,7
 1513 967 1513 967 1562 926 c 0,8,9
 1669 835 1669 835 1669 646 c 2,10,-1
 1669 0 l 1,11,-1
 1483 0 l 1,12,-1
 1483 637 l 2,13,14
 1483 754 1483 754 1432.5 806.5 c 128,-1,15
 1382 859 1382 859 1287 859 c 128,-1,16
 1192 859 1192 859 1142 829.5 c 128,-1,17
 1092 800 1092 800 1068 755 c 0,18,19
 1031 688 1031 688 1031 552 c 2,20,-1
 1031 0 l 1,21,-1
 844 0 l 1,22,-1
 844 646 l 2,23,24
 844 746 844 746 794 802.5 c 128,-1,25
 744 859 744 859 644 859 c 0,26,27
 504 859 504 859 439 764 c 0,28,29
 392 696 392 696 392 542 c 2,30,-1
 392 0 l 1,31,-1
 203 0 l 1,32,-1
 203 840 l 1,33,-1
 81 840 l 1,34,-1
 71 984 l 1,35,-1
 378 984 l 1,36,-1
 388 857 l 1,37,38
 520 1000 520 1000 684 1000 c 0,0,1
EndSplineSet
EndChar

StartChar: n
Encoding: 110 110 85
Width: 1196
GlyphClass: 2
Flags: W
LayerCount: 2
Fore
SplineSet
862 0 m 1,0,-1
 862 635 l 2,1,2
 862 744 862 744 807.5 801.5 c 128,-1,3
 753 859 753 859 641 859 c 128,-1,4
 529 859 529 859 460.5 779.5 c 128,-1,5
 392 700 392 700 392 545 c 2,6,-1
 392 0 l 1,7,-1
 203 0 l 1,8,-1
 203 840 l 1,9,-1
 101 840 l 1,10,-1
 81 984 l 1,11,-1
 378 984 l 1,12,-1
 388 858 l 1,13,14
 454 933 454 933 504 957 c 0,15,16
 594 1000 594 1000 696 1000 c 0,17,18
 831 1000 831 1000 926 929 c 0,19,20
 1048 839 1048 839 1048 650 c 2,21,-1
 1048 0 l 1,22,-1
 862 0 l 1,0,-1
EndSplineSet
EndChar

StartChar: o
Encoding: 111 111 86
Width: 1129
GlyphClass: 2
Flags: W
LayerCount: 2
Fore
SplineSet
1005.5 680.5 m 128,-1,1
 1031 589 1031 589 1031 484 c 128,-1,2
 1031 379 1031 379 1000.5 285.5 c 128,-1,3
 970 192 970 192 910 124 c 0,4,5
 787 -17 787 -17 560 -17 c 0,6,7
 342 -17 342 -17 220 120.5 c 128,-1,8
 98 258 98 258 98 483 c 0,9,10
 98 839 98 839 357 958 c 0,11,12
 447 1000 447 1000 571 1000 c 128,-1,13
 695 1000 695 1000 782 957 c 128,-1,14
 869 914 869 914 924.5 843 c 128,-1,0
 980 772 980 772 1005.5 680.5 c 128,-1,1
844 488 m 0,15,16
 844 859 844 859 570 859 c 0,17,18
 448 859 448 859 371 772 c 0,19,20
 284 674 284 674 284 484 c 0,21,22
 284 224 284 224 436 148 c 0,23,24
 489 122 489 122 556.5 122 c 128,-1,25
 624 122 624 122 675.5 143 c 128,-1,26
 727 164 727 164 764 208 c 0,27,28
 844 303 844 303 844 488 c 0,15,16
EndSplineSet
EndChar

StartChar: p
Encoding: 112 112 87
Width: 1159
GlyphClass: 2
Flags: W
LayerCount: 2
Fore
SplineSet
341 107 m 1,0,-1
 346 -72 l 1,1,-1
 346 -400 l 1,2,-1
 159 -400 l 1,3,-1
 159 691 l 1,4,5
 158 733 158 733 157.5 783 c 128,-1,6
 157 833 157 833 156 876 c 2,7,-1
 153 984 l 1,8,-1
 330 984 l 1,9,-1
 343 837 l 1,10,11
 457 1000 457 1000 657 1000 c 0,12,13
 831 1000 831 1000 939 874 c 0,14,15
 1059 734 1059 734 1059 490 c 0,16,17
 1059 243 1059 243 934 107 c 0,18,19
 820 -17 820 -17 645 -17 c 128,-1,20
 470 -17 470 -17 341 107 c 1,0,-1
877 496 m 0,21,22
 877 859 877 859 621 859 c 0,23,24
 515 859 515 859 428 788 c 0,25,26
 346 721 346 721 346 648 c 2,27,-1
 346 348 l 2,28,29
 346 261 346 261 411 196 c 0,30,31
 486 121 486 121 611 121 c 0,32,33
 761 121 761 121 827 244 c 0,34,35
 877 337 877 337 877 496 c 0,21,22
EndSplineSet
EndChar

StartChar: q
Encoding: 113 113 88
Width: 1156
GlyphClass: 2
Flags: W
LayerCount: 2
Fore
SplineSet
817 111 m 1,0,1
 685 -17 685 -17 518 -17 c 0,2,3
 332 -17 332 -17 222 108 c 1,4,5
 101 243 101 243 101 491 c 0,6,7
 101 741 101 741 218 876 c 0,8,9
 325 1000 325 1000 499.5 1000 c 128,-1,10
 674 1000 674 1000 816 836 c 1,11,-1
 829 984 l 1,12,-1
 1002 984 l 1,13,-1
 997 772 l 1,14,-1
 997 -400 l 1,15,-1
 811 -400 l 1,16,-1
 811 -72 l 2,17,18
 811 27 811 27 817 111 c 1,0,1
815 440 m 0,19,20
 815 495 815 495 812.5 539.5 c 128,-1,21
 810 584 810 584 801 628.5 c 128,-1,22
 792 673 792 673 774 715 c 128,-1,23
 756 757 756 757 726 789 c 0,24,25
 659 859 659 859 539 859 c 0,26,27
 354 859 354 859 304 656 c 0,28,29
 287 588 287 588 287 510.5 c 128,-1,30
 287 433 287 433 297.5 367 c 128,-1,31
 308 301 308 301 337 246 c 0,32,33
 403 122 403 122 552 122 c 0,34,35
 815 122 815 122 815 440 c 0,19,20
EndSplineSet
EndChar

StartChar: r
Encoding: 114 114 89
Width: 749
GlyphClass: 2
Flags: W
LayerCount: 2
Fore
SplineSet
711 818 m 1,0,1
 652 829 652 829 596.5 829 c 128,-1,2
 541 829 541 829 491 806.5 c 128,-1,3
 441 784 441 784 410 744 c 0,4,5
 348 664 348 664 348 524 c 2,6,-1
 348 0 l 1,7,-1
 159 0 l 1,8,-1
 159 732 l 1,9,-1
 153 984 l 1,10,-1
 328 984 l 1,11,-1
 337 814 l 1,12,13
 397 906 397 906 486 958 c 1,14,15
 561 1000 561 1000 621 1000 c 128,-1,16
 681 1000 681 1000 723 994 c 1,17,-1
 711 818 l 1,0,1
EndSplineSet
EndChar

StartChar: s
Encoding: 115 115 90
Width: 922
GlyphClass: 2
Flags: W
LayerCount: 2
Fore
SplineSet
757 773 m 1,0,1
 622 859 622 859 476 859 c 0,2,3
 348 859 348 859 302 792 c 0,4,5
 287 770 287 770 287 741 c 0,6,7
 287 687 287 687 340.5 650.5 c 128,-1,8
 394 614 394 614 489.5 581.5 c 128,-1,9
 585 549 585 549 649 518.5 c 128,-1,10
 713 488 713 488 753 454 c 0,11,12
 829 388 829 388 829 295.5 c 128,-1,13
 829 203 829 203 794.5 146.5 c 128,-1,14
 760 90 760 90 704 53 c 0,15,16
 598 -17 598 -17 428 -17 c 0,17,18
 239 -17 239 -17 82 82 c 1,19,-1
 141 213 l 1,20,21
 260 122 260 122 440 122 c 0,22,23
 578 122 578 122 626 202 c 0,24,25
 643 229 643 229 643 261 c 128,-1,26
 643 293 643 293 633 314 c 128,-1,27
 623 335 623 335 598 354 c 0,28,29
 558 384 558 384 456 421.5 c 128,-1,30
 354 459 354 459 295.5 483.5 c 128,-1,31
 237 508 237 508 196 540 c 0,32,33
 108 607 108 607 108 727 c 0,34,35
 108 859 108 859 218 933 c 0,36,37
 318 1000 318 1000 472 1000 c 0,38,39
 668 1000 668 1000 818 896 c 1,40,-1
 757 773 l 1,0,1
EndSplineSet
EndChar

StartChar: t
Encoding: 116 116 91
Width: 700
GlyphClass: 2
Flags: W
LayerCount: 2
Fore
SplineSet
637 2 m 1,0,1
 378 -48 378 -48 278 36 c 0,2,3
 206 96 206 96 206 243 c 2,4,-1
 206 841 l 1,5,-1
 49 841 l 1,6,-1
 49 984 l 1,7,-1
 211 984 l 1,8,-1
 244 1220 l 1,9,-1
 395 1250 l 1,10,-1
 395 984 l 1,11,-1
 633 984 l 1,12,-1
 633 841 l 1,13,-1
 395 841 l 1,14,-1
 395 263 l 2,15,16
 395 197 395 197 413 171 c 0,17,18
 447 122 447 122 512 122 c 128,-1,19
 577 122 577 122 637 135 c 1,20,-1
 637 2 l 1,0,1
EndSplineSet
EndChar

StartChar: u
Encoding: 117 117 92
Width: 1147
GlyphClass: 2
Flags: W
LayerCount: 2
Fore
SplineSet
986 360 m 2,0,1
 986 153 986 153 1003 0 c 1,2,-1
 846 0 l 1,3,4
 834 39 834 39 825 161 c 1,5,6
 769 33 769 33 620 -5 c 0,7,8
 574 -17 574 -17 523 -17 c 0,9,10
 148 -17 148 -17 148 352 c 2,11,-1
 148 984 l 1,12,-1
 334 984 l 1,13,-1
 334 351 l 2,14,15
 334 122 334 122 533 122 c 0,16,17
 748 122 748 122 788 318 c 0,18,19
 800 378 800 378 800 447 c 2,20,-1
 800 984 l 1,21,-1
 986 984 l 1,22,-1
 986 360 l 2,0,1
EndSplineSet
EndChar

StartChar: v
Encoding: 118 118 93
Width: 1028
GlyphClass: 2
Flags: W
LayerCount: 2
Fore
SplineSet
405 0 m 1,0,-1
 17 984 l 1,1,-1
 220 984 l 1,2,-1
 393 519 l 1,3,-1
 516 173 l 1,4,-1
 638 518 l 1,5,-1
 809 984 l 1,6,-1
 1014 984 l 1,7,-1
 612 0 l 1,8,-1
 405 0 l 1,0,-1
EndSplineSet
EndChar

StartChar: w
Encoding: 119 119 94
Width: 1517
GlyphClass: 2
Flags: W
LayerCount: 2
Fore
SplineSet
866 984 m 1,0,-1
 1002 495 l 1,1,-1
 1093 155 l 1,2,-1
 1108 155 l 1,3,-1
 1187 547 l 1,4,-1
 1288 984 l 1,5,-1
 1478 984 l 1,6,-1
 1219 0 l 1,7,-1
 986 0 l 1,8,-1
 847 491 l 1,9,-1
 759 831 l 1,10,-1
 671 491 l 1,11,-1
 532 0 l 1,12,-1
 299 0 l 1,13,-1
 39 984 l 1,14,-1
 233 984 l 1,15,-1
 414 155 l 1,16,-1
 428 155 l 1,17,-1
 516 495 l 1,18,-1
 652 984 l 1,19,-1
 866 984 l 1,0,-1
EndSplineSet
EndChar

StartChar: x
Encoding: 120 120 95
Width: 1051
GlyphClass: 2
Flags: W
LayerCount: 2
Fore
SplineSet
408 507 m 1,0,-1
 55 984 l 1,1,-1
 284 984 l 1,2,-1
 533 620 l 1,3,-1
 785 984 l 1,4,-1
 1003 984 l 1,5,-1
 641 502 l 1,6,-1
 1010 0 l 1,7,-1
 781 0 l 1,8,-1
 516 381 l 1,9,-1
 250 0 l 1,10,-1
 36 0 l 1,11,-1
 408 507 l 1,0,-1
EndSplineSet
EndChar

StartChar: y
Encoding: 121 121 96
Width: 1025
GlyphClass: 2
Flags: W
LayerCount: 2
Fore
SplineSet
202 -218 m 1,0,1
 242 -232 242 -232 269.5 -232 c 128,-1,2
 297 -232 297 -232 318 -214.5 c 128,-1,3
 339 -197 339 -197 356 -168 c 0,4,5
 380 -127 380 -127 408 -29 c 2,6,-1
 418 5 l 1,7,-1
 14 984 l 1,8,-1
 220 984 l 1,9,-1
 396 519 l 1,10,-1
 516 188 l 1,11,-1
 809 984 l 1,12,-1
 1011 984 l 1,13,-1
 573 -84 l 2,14,15
 523 -208 523 -208 482 -261 c 0,16,17
 399 -367 399 -367 299 -367 c 0,18,19
 264 -367 264 -367 202 -351 c 1,20,-1
 202 -218 l 1,0,1
EndSplineSet
EndChar

StartChar: z
Encoding: 122 122 97
Width: 885
GlyphClass: 2
Flags: W
LayerCount: 2
Fore
SplineSet
791 0 m 1,0,-1
 85 0 l 1,1,-1
 85 159 l 1,2,-1
 574 840 l 1,3,-1
 114 840 l 1,4,-1
 114 984 l 1,5,-1
 784 984 l 1,6,-1
 784 836 l 1,7,-1
 286 144 l 1,8,-1
 791 144 l 1,9,-1
 791 0 l 1,0,-1
EndSplineSet
EndChar

StartChar: braceleft
Encoding: 123 123 98
Width: 717
GlyphClass: 2
Flags: W
LayerCount: 2
Fore
SplineSet
646 -268 m 1,0,1
 339 -255 339 -255 289 -30 c 0,2,3
 274 38 274 38 274 115 c 2,4,-1
 274 289 l 2,5,6
 274 464 274 464 126 504 c 0,7,8
 79 516 79 516 22 521 c 1,9,-1
 22 654 l 1,10,11
 238 672 238 672 266 800 c 0,12,13
 274 839 274 839 274 887 c 2,14,-1
 274 1068 l 2,15,16
 274 1244 274 1244 349 1331 c 0,17,18
 436 1433 436 1433 645 1442 c 1,19,-1
 653 1311 l 1,20,21
 480 1289 480 1289 456 1168 c 0,22,23
 448 1128 448 1128 448 1077 c 2,24,-1
 448 902 l 2,25,26
 448 787 448 787 417 731 c 128,-1,27
 386 675 386 675 345 641.5 c 128,-1,28
 304 608 304 608 238 587 c 1,29,30
 412 532 412 532 440 368 c 0,31,32
 448 321 448 321 448 274 c 2,33,-1
 448 161 l 2,34,35
 448 100 448 100 451 48.5 c 128,-1,36
 454 -3 454 -3 473 -42 c 0,37,38
 513 -123 513 -123 653 -134 c 1,39,-1
 646 -268 l 1,0,1
EndSplineSet
EndChar

StartChar: bar
Encoding: 124 124 99
Width: 497
GlyphClass: 2
Flags: W
LayerCount: 2
Fore
SplineSet
167 1442 m 1,0,-1
 330 1442 l 1,1,-1
 330 -477 l 1,2,-1
 167 -477 l 1,3,-1
 167 1442 l 1,0,-1
EndSplineSet
EndChar

StartChar: braceright
Encoding: 125 125 100
Width: 717
GlyphClass: 2
Flags: W
LayerCount: 2
Fore
SplineSet
64 -134 m 1,0,1
 204 -123 204 -123 244 -42 c 0,2,3
 263 -3 263 -3 266 48.5 c 128,-1,4
 269 100 269 100 269 161 c 2,5,-1
 269 274 l 2,6,7
 269 385 269 385 299.5 441.5 c 128,-1,8
 330 498 330 498 371.5 532 c 128,-1,9
 413 566 413 566 479 587 c 1,10,11
 304 643 304 643 277 806 c 0,12,13
 269 853 269 853 269 902 c 2,14,-1
 269 1077 l 2,15,16
 269 1187 269 1187 238.5 1226.5 c 128,-1,17
 208 1266 208 1266 168 1284.5 c 128,-1,18
 128 1303 128 1303 64 1311 c 1,19,-1
 72 1442 l 1,20,21
 374 1428 374 1428 426 1216 c 0,22,23
 443 1149 443 1149 443 1068 c 2,24,-1
 443 887 l 2,25,26
 443 779 443 779 487 730 c 0,27,28
 544 667 544 667 695 654 c 1,29,-1
 695 521 l 1,30,31
 569 510 569 510 512 465 c 0,32,33
 443 411 443 411 443 289 c 2,34,-1
 443 115 l 2,35,36
 443 -59 443 -59 372 -148 c 1,37,38
 286 -259 286 -259 71 -268 c 1,39,-1
 64 -134 l 1,0,1
EndSplineSet
EndChar

StartChar: asciitilde
Encoding: 126 126 101
Width: 1208
GlyphClass: 2
Flags: W
LayerCount: 2
Fore
SplineSet
120 514 m 1,0,1
 197 728 197 728 379 728 c 0,2,3
 426 728 426 728 542 688.5 c 128,-1,4
 658 649 658 649 702 635 c 0,5,6
 807 602 807 602 852 602 c 128,-1,7
 897 602 897 602 944 633.5 c 128,-1,8
 991 665 991 665 1025 734 c 1,9,-1
 1089 656 l 1,10,11
 1057 537 1057 537 978 482 c 1,12,13
 920 443 920 443 859 443 c 128,-1,14
 798 443 798 443 753 452.5 c 128,-1,15
 708 462 708 462 661.5 475.5 c 128,-1,16
 615 489 615 489 569 505.5 c 128,-1,17
 523 522 523 522 483 536 c 0,18,19
 387 568 387 568 351.5 568 c 128,-1,20
 316 568 316 568 268 534 c 128,-1,21
 220 500 220 500 184 434 c 1,22,-1
 120 514 l 1,0,1
EndSplineSet
EndChar

StartChar: exclamdown
Encoding: 161 161 103
Width: 531
GlyphClass: 2
Flags: W
LayerCount: 2
Fore
SplineSet
370 0 m 1,0,-1
 162 0 l 1,1,-1
 162 1055 l 1,2,-1
 322 1055 l 1,3,-1
 370 0 l 1,0,-1
162 1394 m 1,4,-1
 370 1394 l 1,5,-1
 370 1183 l 1,6,-1
 162 1183 l 1,7,-1
 162 1394 l 1,4,-1
EndSplineSet
EndChar

StartChar: cent
Encoding: 162 162 104
Width: 953
GlyphClass: 2
Flags: W
LayerCount: 2
Fore
SplineSet
293 43 m 1,0,1
 94 177 94 177 94 508 c 0,2,3
 94 795 94 795 236 935 c 0,4,5
 357 1054 357 1054 566 1054 c 2,6,-1
 576 1054 l 2,7,8
 581 1054 581 1054 590 1052 c 1,9,-1
 664 1302 l 1,10,-1
 782 1302 l 1,11,-1
 703 1034 l 1,12,-1
 740 1013 l 2,13,14
 790 985 790 985 856 924 c 1,15,-1
 767 803 l 1,16,17
 755 812 755 812 745 820 c 128,-1,18
 735 828 735 828 723 836 c 0,19,20
 698 853 698 853 654 871 c 1,21,-1
 443 153 l 1,22,23
 494 136 494 136 550 136 c 0,24,25
 668 136 668 136 794 235 c 1,26,-1
 843 107 l 1,27,28
 742 -26 742 -26 550 -26 c 0,29,30
 484 -26 484 -26 396 -5 c 1,31,-1
 330 -233 l 1,32,-1
 213 -233 l 1,33,-1
 293 43 l 1,0,1
543 893 m 1,34,35
 286 865 286 865 286 514 c 0,36,37
 286 352 286 352 347 228 c 1,38,-1
 543 893 l 1,34,35
EndSplineSet
EndChar

StartChar: sterling
Encoding: 163 163 105
Width: 1163
GlyphClass: 2
Flags: W
LayerCount: 2
Fore
SplineSet
919 1160 m 1,0,1
 856 1293 856 1293 688 1293 c 0,2,3
 500 1293 500 1293 472 1106 c 0,4,5
 463 1051 463 1051 463 987 c 2,6,-1
 463 793 l 1,7,-1
 774 793 l 1,8,-1
 774 648 l 1,9,-1
 463 648 l 1,10,-1
 463 416 l 2,11,12
 463 286 463 286 410 156 c 1,13,-1
 1063 156 l 1,14,-1
 1063 0 l 1,15,-1
 112 0 l 1,16,-1
 112 141 l 1,17,-1
 224 156 l 1,18,19
 254 173 254 173 268 380 c 0,20,21
 269 403 269 403 269 416 c 2,22,-1
 269 648 l 1,23,-1
 106 648 l 1,24,-1
 106 793 l 1,25,-1
 269 793 l 1,26,-1
 269 913 l 2,27,28
 269 1062 269 1062 286 1136.5 c 128,-1,29
 303 1211 303 1211 329.5 1263.5 c 128,-1,30
 356 1316 356 1316 402 1356 c 0,31,32
 503 1442 503 1442 682 1442 c 0,33,34
 948 1442 948 1442 1063 1226 c 1,35,-1
 919 1160 l 1,0,1
EndSplineSet
EndChar

StartChar: currency
Encoding: 164 164 106
Width: 1466
GlyphClass: 2
Flags: W
LayerCount: 2
Fore
SplineSet
270 502 m 1,0,1
 150 660 150 660 150 856 c 0,2,3
 150 1053 150 1053 272 1217 c 1,4,-1
 175 1315 l 1,5,-1
 279 1418 l 1,6,-1
 376 1320 l 1,7,8
 543 1442 543 1442 733 1442 c 128,-1,9
 923 1442 923 1442 1089 1321 c 1,10,-1
 1186 1418 l 1,11,-1
 1290 1315 l 1,12,-1
 1193 1217 l 1,13,14
 1317 1060 1317 1060 1317 860 c 128,-1,15
 1317 660 1317 660 1196 501 c 1,16,-1
 1290 407 l 1,17,-1
 1186 303 l 1,18,-1
 1094 395 l 1,19,20
 933 271 933 271 734 271 c 0,21,22
 534 271 534 271 372 396 c 1,23,-1
 279 303 l 1,24,-1
 175 407 l 1,25,-1
 270 502 l 1,0,1
734 410 m 256,26,27
 930 410 930 410 1048 550 c 0,28,29
 1152 674 1152 674 1152 856 c 256,30,31
 1152 1038 1152 1038 1048 1162 c 0,32,33
 930 1302 930 1302 734 1302 c 128,-1,34
 538 1302 538 1302 420 1162 c 0,35,36
 316 1038 316 1038 316 856 c 256,37,38
 316 674 316 674 420 550 c 0,39,40
 538 410 538 410 734 410 c 256,26,27
EndSplineSet
EndChar

StartChar: yen
Encoding: 165 165 107
Width: 1202
GlyphClass: 2
Flags: W
LayerCount: 2
Fore
SplineSet
504 0 m 1,0,-1
 504 286 l 1,1,-1
 179 286 l 1,2,-1
 179 424 l 1,3,-1
 504 424 l 1,4,-1
 504 536 l 1,5,-1
 179 536 l 1,6,-1
 179 675 l 1,7,-1
 439 675 l 1,8,9
 195 1160 195 1160 65 1412 c 1,10,-1
 292 1412 l 1,11,-1
 605 722 l 1,12,-1
 923 1412 l 1,13,-1
 1137 1412 l 1,14,-1
 763 675 l 1,15,-1
 1020 675 l 1,16,-1
 1020 536 l 1,17,-1
 696 536 l 1,18,-1
 696 424 l 1,19,-1
 1020 424 l 1,20,-1
 1020 286 l 1,21,-1
 696 286 l 1,22,-1
 696 0 l 1,23,-1
 504 0 l 1,0,-1
EndSplineSet
EndChar

StartChar: brokenbar
Encoding: 166 166 108
Width: 517
GlyphClass: 2
Flags: W
LayerCount: 2
Fore
SplineSet
177 1442 m 1,0,-1
 340 1442 l 1,1,-1
 340 719 l 1,2,-1
 177 719 l 1,3,-1
 177 1442 l 1,0,-1
177 300 m 1,4,-1
 340 300 l 1,5,-1
 340 -477 l 1,6,-1
 177 -477 l 1,7,-1
 177 300 l 1,4,-1
EndSplineSet
EndChar

StartChar: section
Encoding: 167 167 109
Width: 955
GlyphClass: 2
Flags: W
LayerCount: 2
Fore
SplineSet
819 741 m 0,0,1
 819 567 819 567 661 487 c 1,2,3
 741 448 741 448 770 418 c 0,4,5
 828 358 828 358 828 281.5 c 128,-1,6
 828 205 828 205 800.5 150 c 128,-1,7
 773 95 773 95 722 56 c 0,8,9
 613 -26 613 -26 444.5 -26 c 128,-1,10
 276 -26 276 -26 146 27 c 1,11,-1
 146 202 l 1,12,13
 298 129 298 129 431 129 c 0,14,15
 547 129 547 129 599 179 c 0,16,17
 636 214 636 214 636 254.5 c 128,-1,18
 636 295 636 295 614 318 c 128,-1,19
 592 341 592 341 556.5 359.5 c 128,-1,20
 521 378 521 378 476 394 c 128,-1,21
 431 410 431 410 391.5 426 c 128,-1,22
 352 442 352 442 308.5 462 c 128,-1,23
 265 482 265 482 227 514 c 0,24,25
 136 589 136 589 136 702 c 0,26,27
 136 856 136 856 308 951 c 1,28,29
 153 1026 153 1026 153 1173 c 0,30,31
 153 1299 153 1299 252 1372 c 0,32,33
 348 1442 348 1442 492 1442 c 128,-1,34
 636 1442 636 1442 786 1391 c 1,35,-1
 758 1234 l 1,36,37
 613 1294 613 1294 518 1294 c 0,38,39
 340 1294 340 1294 340 1181 c 0,40,41
 340 1129 340 1129 387 1096 c 0,42,43
 425 1070 425 1070 509 1037.5 c 128,-1,44
 593 1005 593 1005 640.5 984 c 128,-1,45
 688 963 688 963 728 932 c 0,46,47
 819 860 819 860 819 741 c 0,0,1
519 546 m 1,48,49
 652 612 652 612 652 711 c 0,50,51
 652 802 652 802 534 856 c 0,52,53
 494 874 494 874 443 892 c 1,54,55
 351 857 351 857 318 788 c 0,56,57
 305 762 305 762 305 729.5 c 128,-1,58
 305 697 305 697 321.5 669 c 128,-1,59
 338 641 338 641 367 618 c 0,60,61
 421 576 421 576 519 546 c 1,48,49
EndSplineSet
EndChar

StartChar: dieresis
Encoding: 168 168 110
Width: 816
GlyphClass: 2
Flags: W
LayerCount: 2
Fore
SplineSet
327 1377 m 1,0,-1
 327 1205 l 1,1,-1
 105 1205 l 1,2,-1
 105 1377 l 1,3,-1
 327 1377 l 1,0,-1
705 1377 m 1,4,-1
 705 1205 l 1,5,-1
 483 1205 l 1,6,-1
 483 1377 l 1,7,-1
 705 1377 l 1,4,-1
EndSplineSet
EndChar

StartChar: copyright
Encoding: 169 169 111
Width: 1647
GlyphClass: 2
Flags: W
LayerCount: 2
Fore
SplineSet
495.5 560.5 m 128,-1,1
 477 638 477 638 477 699.5 c 128,-1,2
 477 761 477 761 485.5 812.5 c 128,-1,3
 494 864 494 864 512 913 c 128,-1,4
 530 962 530 962 558.5 1005 c 128,-1,5
 587 1048 587 1048 628 1080 c 1,6,7
 715 1151 715 1151 843 1151 c 0,8,9
 979 1151 979 1151 1060 1066 c 1,10,11
 1090 1033 1090 1033 1108 984 c 1,12,-1
 1012 925 l 1,13,14
 973 1013 973 1013 892 1024 c 0,15,16
 867 1028 867 1028 821.5 1028 c 128,-1,17
 776 1028 776 1028 733.5 998.5 c 128,-1,18
 691 969 691 969 666 922 c 1,19,20
 619 838 619 838 619 711 c 0,21,22
 619 506 619 506 732 428 c 0,23,24
 775 398 775 398 821 398 c 128,-1,25
 867 398 867 398 892 401 c 128,-1,26
 917 404 917 404 938 415 c 0,27,28
 985 439 985 439 1012 501 c 1,29,-1
 1108 442 l 1,30,31
 1076 353 1076 353 993 309 c 0,32,33
 929 275 929 275 834.5 275 c 128,-1,34
 740 275 740 275 670 315.5 c 128,-1,35
 600 356 600 356 557 419.5 c 128,-1,0
 514 483 514 483 495.5 560.5 c 128,-1,1
119 511.5 m 128,-1,37
 93 605 93 605 93 731 c 128,-1,38
 93 857 93 857 150 990.5 c 128,-1,39
 207 1124 207 1124 306 1224.5 c 128,-1,40
 405 1325 405 1325 538 1383.5 c 128,-1,41
 671 1442 671 1442 797.5 1442 c 128,-1,42
 924 1442 924 1442 1017.5 1415.5 c 128,-1,43
 1111 1389 1111 1389 1192 1341 c 128,-1,44
 1273 1293 1273 1293 1339.5 1225.5 c 128,-1,45
 1406 1158 1406 1158 1454 1076 c 0,46,47
 1554 907 1554 907 1554 706 c 0,48,49
 1554 404 1554 404 1340 188 c 0,50,51
 1205 52 1205 52 1018 0 c 0,52,53
 924 -26 924 -26 823 -26 c 128,-1,54
 722 -26 722 -26 628.5 0 c 128,-1,55
 535 26 535 26 453.5 74 c 128,-1,56
 372 122 372 122 305.5 189 c 128,-1,57
 239 256 239 256 192 337 c 128,-1,36
 145 418 145 418 119 511.5 c 128,-1,37
219.5 872 m 128,-1,59
 197 792 197 792 197 684.5 c 128,-1,60
 197 577 197 577 246 464 c 128,-1,61
 295 351 295 351 380 266 c 0,62,63
 563 83 563 83 824 83 c 0,64,65
 994 83 994 83 1140 168 c 0,66,67
 1280 250 1280 250 1364 392 c 1,68,69
 1448 536 1448 536 1448 706 c 0,70,71
 1448 964 1448 964 1266 1149 c 0,72,73
 1151 1266 1151 1266 990 1312 c 0,74,75
 910 1334 910 1334 823.5 1334 c 128,-1,76
 737 1334 737 1334 657 1311.5 c 128,-1,77
 577 1289 577 1289 507.5 1248 c 128,-1,78
 438 1207 438 1207 380.5 1149 c 128,-1,79
 323 1091 323 1091 282.5 1021.5 c 128,-1,58
 242 952 242 952 219.5 872 c 128,-1,59
EndSplineSet
EndChar

StartChar: ordfeminine
Encoding: 170 170 112
Width: 770
GlyphClass: 2
Flags: W
LayerCount: 2
Fore
SplineSet
505 880 m 1,0,1
 421 791 421 791 317 791 c 0,2,3
 228 791 228 791 170 840 c 0,4,5
 108 892 108 892 108 966 c 128,-1,6
 108 1040 108 1040 132 1080.5 c 128,-1,7
 156 1121 156 1121 197 1147 c 0,8,9
 276 1197 276 1197 410 1197 c 2,10,-1
 499 1197 l 1,11,-1
 499 1234 l 1,12,13
 495 1340 495 1340 391 1340 c 0,14,15
 298 1340 298 1340 216 1287 c 1,16,-1
 168 1366 l 1,17,18
 260 1442 260 1442 411 1442 c 0,19,20
 556 1442 556 1442 606 1317 c 0,21,22
 624 1274 624 1274 624 1214 c 2,23,-1
 624 975 l 1,24,25
 625 939 625 939 624.5 909 c 128,-1,26
 624 879 624 879 626 856 c 2,27,-1
 629 809 l 1,28,-1
 519 809 l 1,29,30
 517 823 517 823 513 840.5 c 128,-1,31
 509 858 509 858 505 880 c 1,0,1
431 1101 m 2,32,33
 239 1101 239 1101 239 989 c 0,34,35
 239 928 239 928 296 908 c 0,36,37
 316 900 316 900 355.5 900 c 128,-1,38
 395 900 395 900 425.5 918.5 c 128,-1,39
 456 937 456 937 472 966 c 0,40,41
 499 1013 499 1013 499 1100 c 1,42,-1
 482 1100 l 1,43,-1
 444 1101 l 1,44,-1
 431 1101 l 2,32,33
EndSplineSet
EndChar

StartChar: guillemotleft
Encoding: 171 171 113
Width: 989
GlyphClass: 2
Flags: W
LayerCount: 2
Fore
SplineSet
476 495 m 1,0,-1
 476 513 l 1,1,-1
 730 900 l 1,2,-1
 876 863 l 1,3,-1
 670 503 l 1,4,-1
 877 141 l 1,5,-1
 730 108 l 1,6,-1
 476 495 l 1,0,-1
95 495 m 1,7,-1
 95 514 l 1,8,-1
 347 900 l 1,9,-1
 493 863 l 1,10,-1
 285 503 l 1,11,-1
 494 141 l 1,12,-1
 347 107 l 1,13,-1
 95 495 l 1,7,-1
EndSplineSet
EndChar

StartChar: logicalnot
Encoding: 172 172 114
Width: 1256
GlyphClass: 2
Flags: W
LayerCount: 2
Fore
SplineSet
1087 771 m 1,0,-1
 1087 230 l 1,1,-1
 928 230 l 1,2,-1
 928 612 l 1,3,-1
 139 612 l 1,4,-1
 139 771 l 1,5,-1
 1087 771 l 1,0,-1
EndSplineSet
EndChar

StartChar: registered
Encoding: 174 174 116
Width: 1644
GlyphClass: 2
Flags: W
LayerCount: 2
Fore
SplineSet
553 301 m 1,0,-1
 553 1129 l 1,1,-1
 813 1129 l 2,2,3
 935 1129 935 1129 993 1095 c 128,-1,4
 1051 1061 1051 1061 1078 1016 c 128,-1,5
 1105 971 1105 971 1105 923 c 128,-1,6
 1105 875 1105 875 1098 847.5 c 128,-1,7
 1091 820 1091 820 1075 792 c 0,8,9
 1039 730 1039 730 970 694 c 1,10,11
 1059 669 1059 669 1094 535 c 0,12,13
 1104 497 1104 497 1112 456 c 0,14,15
 1134 347 1134 347 1152 301 c 1,16,-1
 1009 301 l 1,17,18
 984 398 984 398 971 464 c 128,-1,19
 958 530 958 530 941.5 570.5 c 128,-1,20
 925 611 925 611 896.5 628.5 c 128,-1,21
 868 646 868 646 811 646 c 2,22,-1
 693 646 l 1,23,-1
 693 301 l 1,24,-1
 553 301 l 1,0,-1
811 768 m 2,25,26
 964 768 964 768 964 888 c 0,27,28
 964 988 964 988 868 1002 c 0,29,30
 840 1006 840 1006 810 1006 c 2,31,-1
 693 1006 l 1,32,-1
 693 768 l 1,33,-1
 811 768 l 2,25,26
245.5 953 m 128,-1,35
 196 840 196 840 196 732 c 128,-1,36
 196 624 196 624 218.5 543.5 c 128,-1,37
 241 463 241 463 282 393 c 128,-1,38
 323 323 323 323 380 266 c 128,-1,39
 437 209 437 209 506 168 c 0,40,41
 652 82 652 82 801.5 82 c 128,-1,42
 951 82 951 82 1064.5 131.5 c 128,-1,43
 1178 181 1178 181 1262 266 c 0,44,45
 1444 450 1444 450 1444 711 c 0,46,47
 1444 878 1444 878 1360 1024 c 0,48,49
 1279 1164 1279 1164 1138 1248 c 0,50,51
 993 1334 993 1334 842.5 1334 c 128,-1,52
 692 1334 692 1334 578.5 1285 c 128,-1,53
 465 1236 465 1236 380 1151 c 128,-1,34
 295 1066 295 1066 245.5 953 c 128,-1,35
92 711 m 0,54,55
 92 1015 92 1015 308 1230 c 0,56,57
 443 1364 443 1364 630 1416 c 0,58,59
 722 1442 722 1442 821.5 1442 c 128,-1,60
 921 1442 921 1442 1014.5 1416 c 128,-1,61
 1108 1390 1108 1390 1189 1342.5 c 128,-1,62
 1270 1295 1270 1295 1336.5 1228.5 c 128,-1,63
 1403 1162 1403 1162 1450 1081 c 0,64,65
 1550 911 1550 911 1550 711 c 0,66,67
 1550 406 1550 406 1336 190 c 0,68,69
 1200 54 1200 54 1014 0 c 0,70,71
 921 -26 921 -26 821 -26 c 0,72,73
 625 -26 625 -26 455 75 c 0,74,75
 200 226 200 226 118 515 c 0,76,77
 92 609 92 609 92 711 c 0,54,55
EndSplineSet
EndChar

StartChar: macron
Encoding: 175 175 117
Width: 546
GlyphClass: 2
Flags: W
LayerCount: 2
Fore
SplineSet
-3 1359 m 1,0,-1
 540 1359 l 1,1,-1
 540 1242 l 1,2,-1
 -3 1242 l 1,3,-1
 -3 1359 l 1,0,-1
EndSplineSet
EndChar

StartChar: degree
Encoding: 176 176 118
Width: 808
GlyphClass: 2
Flags: W
LayerCount: 2
Fore
SplineSet
98 1104 m 0,0,1
 98 1168 98 1168 122 1224 c 128,-1,2
 146 1280 146 1280 188 1322 c 0,3,4
 278 1412 278 1412 404 1412 c 256,5,6
 530 1412 530 1412 620 1322 c 128,-1,7
 710 1232 710 1232 710 1104 c 0,8,9
 710 977 710 977 620 888 c 1,10,11
 530 797 530 797 404 797 c 256,12,13
 278 797 278 797 188 887 c 128,-1,14
 98 977 98 977 98 1104 c 0,0,1
234 1104 m 0,15,16
 234 1069 234 1069 247.5 1039 c 128,-1,17
 261 1009 261 1009 284 986 c 0,18,19
 333 937 333 937 404 937 c 0,20,21
 474 937 474 937 525 986 c 0,22,23
 574 1034 574 1034 574 1104 c 0,24,25
 574 1173 574 1173 524 1223 c 128,-1,26
 474 1273 474 1273 404 1273 c 0,27,28
 333 1273 333 1273 284 1224 c 0,29,30
 234 1174 234 1174 234 1104 c 0,15,16
EndSplineSet
EndChar

StartChar: plusminus
Encoding: 177 177 119
Width: 1214
GlyphClass: 2
Flags: W
LayerCount: 2
Fore
SplineSet
524 564 m 1,0,-1
 133 564 l 1,1,-1
 133 725 l 1,2,-1
 524 725 l 1,3,-1
 524 1070 l 1,4,-1
 688 1070 l 1,5,-1
 688 725 l 1,6,-1
 1081 725 l 1,7,-1
 1081 564 l 1,8,-1
 688 564 l 1,9,-1
 688 222 l 1,10,-1
 524 222 l 1,11,-1
 524 564 l 1,0,-1
133 -13 m 1,12,-1
 133 147 l 1,13,-1
 1081 147 l 1,14,-1
 1081 -13 l 1,15,-1
 133 -13 l 1,12,-1
EndSplineSet
EndChar

StartChar: twosuperior
Encoding: 178 178 120
Width: 925
GlyphClass: 2
Flags: W
LayerCount: 2
Fore
SplineSet
123 1159 m 1,0,1
 181 1289 181 1289 258 1344 c 1,2,3
 333 1399 333 1399 454 1399 c 0,4,5
 679 1399 679 1399 756 1226 c 0,6,7
 782 1168 782 1168 782 1105 c 128,-1,8
 782 1042 782 1042 767 993.5 c 128,-1,9
 752 945 752 945 718 888 c 0,10,11
 651 778 651 778 487 612 c 2,12,-1
 300 422 l 1,13,-1
 804 422 l 1,14,-1
 804 285 l 1,15,-1
 112 285 l 1,16,-1
 112 425 l 1,17,-1
 386 708 l 2,18,19
 508 834 508 834 549 896 c 0,20,21
 627 1014 627 1014 627 1093 c 0,22,23
 627 1206 627 1206 538 1248 c 0,24,25
 505 1263 505 1263 457 1263 c 0,26,27
 337 1263 337 1263 282 1161 c 0,28,29
 268 1134 268 1134 257 1109 c 1,30,-1
 123 1159 l 1,0,1
EndSplineSet
EndChar

StartChar: threesuperior
Encoding: 179 179 121
Width: 933
GlyphClass: 2
Flags: W
LayerCount: 2
Fore
SplineSet
354 924 m 0,0,1
 628 924 628 924 628 1111 c 0,2,3
 628 1187 628 1187 574 1230 c 0,4,5
 526 1268 526 1268 472 1268 c 128,-1,6
 418 1268 418 1268 385 1259.5 c 128,-1,7
 352 1251 352 1251 322 1234 c 0,8,9
 259 1199 259 1199 230 1136 c 1,10,-1
 110 1181 l 1,11,12
 179 1340 179 1340 358 1386 c 0,13,14
 411 1399 411 1399 468 1399 c 128,-1,15
 525 1399 525 1399 583 1381 c 128,-1,16
 641 1363 641 1363 686 1328 c 0,17,18
 784 1249 784 1249 784 1117 c 0,19,20
 784 1042 784 1042 735.5 975 c 128,-1,21
 687 908 687 908 600 863 c 1,22,23
 712 826 712 826 767 740 c 0,24,25
 807 677 807 677 807 606 c 128,-1,26
 807 535 807 535 777.5 477 c 128,-1,27
 748 419 748 419 698 378 c 0,28,29
 593 292 593 292 447 292 c 0,30,31
 289 292 289 292 165 396 c 0,32,33
 122 432 122 432 86 482 c 1,34,-1
 203 546 l 1,35,36
 248 482 248 482 313.5 450 c 128,-1,37
 379 418 379 418 433.5 418 c 128,-1,38
 488 418 488 418 525 430 c 128,-1,39
 562 442 562 442 590 466 c 0,40,41
 652 518 652 518 652 610 c 0,42,43
 652 709 652 709 572 756 c 1,44,45
 508 795 508 795 396 795 c 2,46,-1
 318 795 l 1,47,-1
 318 926 l 1,48,49
 334 924 334 924 354 924 c 0,0,1
EndSplineSet
EndChar

StartChar: acute
Encoding: 180 180 122
Width: 816
GlyphClass: 2
Flags: W
LayerCount: 2
Fore
SplineSet
249 1165 m 1,0,-1
 417 1474 l 1,1,-1
 636 1474 l 1,2,-1
 380 1165 l 1,3,-1
 249 1165 l 1,0,-1
EndSplineSet
EndChar

StartChar: mu
Encoding: 181 181 123
Width: 1137
GlyphClass: 2
Flags: W
LayerCount: 2
Fore
SplineSet
570 127 m 0,0,1
 829 127 829 127 829 508 c 2,2,-1
 829 984 l 1,3,-1
 1003 984 l 1,4,-1
 1003 0 l 1,5,-1
 852 0 l 1,6,-1
 840 125 l 1,7,8
 724 -26 724 -26 563 -26 c 0,9,10
 447 -26 447 -26 347 69 c 1,11,-1
 350 -221 l 1,12,-1
 350 -438 l 1,13,-1
 175 -438 l 1,14,-1
 175 984 l 1,15,-1
 350 984 l 1,16,-1
 350 444 l 2,17,18
 350 299 350 299 381.5 239.5 c 128,-1,19
 413 180 413 180 456 153.5 c 128,-1,20
 499 127 499 127 570 127 c 0,0,1
EndSplineSet
EndChar

StartChar: paragraph
Encoding: 182 182 124
Width: 1222
GlyphClass: 2
Flags: W
LayerCount: 2
Fore
SplineSet
66 971 m 0,0,1
 66 1412 66 1412 541 1412 c 2,2,-1
 1075 1412 l 1,3,-1
 1075 1259 l 1,4,-1
 1020 1259 l 1,5,-1
 1020 -290 l 1,6,-1
 874 -290 l 1,7,-1
 874 1261 l 1,8,-1
 671 1261 l 1,9,-1
 671 -290 l 1,10,-1
 526 -290 l 1,11,-1
 526 518 l 1,12,13
 504 516 504 516 438 516 c 128,-1,14
 372 516 372 516 296.5 550 c 128,-1,15
 221 584 221 584 170 644 c 0,16,17
 66 768 66 768 66 971 c 0,0,1
EndSplineSet
EndChar

StartChar: periodcentered
Encoding: 183 183 125
Width: 510
GlyphClass: 2
Flags: W
LayerCount: 2
Fore
SplineSet
143 697 m 1,0,-1
 367 697 l 1,1,-1
 367 448 l 1,2,-1
 143 448 l 1,3,-1
 143 697 l 1,0,-1
EndSplineSet
EndChar

StartChar: cedilla
Encoding: 184 184 126
Width: 481
GlyphClass: 2
Flags: W
LayerCount: 2
Fore
SplineSet
60 -313 m 1,0,1
 102 -330 102 -330 160 -330 c 0,2,3
 282 -330 282 -330 282 -256 c 0,4,5
 282 -189 282 -189 175 -189 c 2,6,-1
 161 -189 l 2,7,8
 155 -189 155 -189 149 -190 c 1,9,-1
 96 -163 l 1,10,-1
 208 18 l 1,11,-1
 319 18 l 1,12,-1
 248 -97 l 1,13,14
 345 -111 345 -111 389.5 -146.5 c 128,-1,15
 434 -182 434 -182 434 -248 c 0,16,17
 434 -367 434 -367 307 -418 c 0,18,19
 256 -439 256 -439 193 -439 c 0,20,21
 103 -439 103 -439 34 -412 c 1,22,-1
 60 -313 l 1,0,1
EndSplineSet
EndChar

StartChar: onesuperior
Encoding: 185 185 127
Width: 632
GlyphClass: 2
Flags: W
LayerCount: 2
Fore
SplineSet
303 920 m 1,0,-1
 304 1037 l 1,1,-1
 306 1196 l 1,2,3
 221 1124 221 1124 81 1044 c 1,4,-1
 44 1182 l 1,5,6
 102 1213 102 1213 161.5 1257.5 c 128,-1,7
 221 1302 221 1302 246 1320 c 0,8,9
 288 1351 288 1351 321 1377 c 1,10,-1
 452 1377 l 1,11,-1
 452 285 l 1,12,-1
 302 285 l 1,13,-1
 302 849 l 1,14,-1
 303 920 l 1,0,-1
EndSplineSet
EndChar

StartChar: ordmasculine
Encoding: 186 186 128
Width: 753
GlyphClass: 2
Flags: W
LayerCount: 2
Fore
SplineSet
664.5 1237 m 128,-1,1
 681 1179 681 1179 681 1111.5 c 128,-1,2
 681 1044 681 1044 660 983 c 128,-1,3
 639 922 639 922 600 879 c 0,4,5
 517 789 517 789 376 789 c 0,6,7
 232 789 232 789 150 882 c 1,8,9
 73 971 73 971 73 1115 c 0,10,11
 73 1342 73 1342 244 1417 c 0,12,13
 302 1442 302 1442 381.5 1442 c 128,-1,14
 461 1442 461 1442 518.5 1414 c 128,-1,15
 576 1386 576 1386 612 1340.5 c 128,-1,0
 648 1295 648 1295 664.5 1237 c 128,-1,1
544 1120 m 0,16,17
 544 1337 544 1337 379 1337 c 0,18,19
 208 1337 208 1337 208 1119 c 0,20,21
 208 964 208 964 296 915 c 0,22,23
 328 897 328 897 370 897 c 128,-1,24
 412 897 412 897 442.5 910 c 128,-1,25
 473 923 473 923 496 950 c 1,26,27
 544 1010 544 1010 544 1120 c 0,16,17
EndSplineSet
EndChar

StartChar: guillemotright
Encoding: 187 187 129
Width: 991
GlyphClass: 2
Flags: W
LayerCount: 2
Fore
SplineSet
322 502 m 1,0,-1
 114 863 l 1,1,-1
 260 900 l 1,2,-1
 514 511 l 1,3,-1
 514 492 l 1,4,-1
 260 107 l 1,5,-1
 116 141 l 1,6,-1
 322 502 l 1,0,-1
705 502 m 1,7,-1
 497 863 l 1,8,-1
 643 900 l 1,9,-1
 898 511 l 1,10,-1
 896 492 l 1,11,-1
 642 107 l 1,12,-1
 498 141 l 1,13,-1
 705 502 l 1,7,-1
EndSplineSet
EndChar

StartChar: AE
Encoding: 198 198 140
Width: 1814
GlyphClass: 2
Flags: W
LayerCount: 2
Fore
SplineSet
960 0 m 1,0,-1
 924 410 l 1,1,-1
 389 410 l 1,2,-1
 176 0 l 1,3,-1
 -33 0 l 1,4,-1
 704 1412 l 1,5,-1
 1683 1412 l 1,6,-1
 1683 1237 l 1,7,-1
 1042 1237 l 1,8,-1
 1081 820 l 1,9,-1
 1651 820 l 1,10,-1
 1651 645 l 1,11,-1
 1098 645 l 1,12,-1
 1142 177 l 1,13,-1
 1694 177 l 1,14,-1
 1694 0 l 1,15,-1
 960 0 l 1,0,-1
472 581 m 1,16,-1
 907 581 l 1,17,-1
 848 1245 l 1,18,-1
 807 1245 l 1,19,-1
 472 581 l 1,16,-1
EndSplineSet
EndChar

StartChar: Eth
Encoding: 208 208 150
Width: 1403
GlyphClass: 2
Flags: W
LayerCount: 2
Fore
SplineSet
73 640 m 1,0,-1
 73 808 l 1,1,-1
 192 808 l 1,2,-1
 192 1412 l 1,3,-1
 674 1412 l 2,4,5
 872 1412 872 1412 1020 1311 c 0,6,7
 1152 1221 1152 1221 1226 1058 c 0,8,9
 1294 906 1294 906 1294 735 c 128,-1,10
 1294 564 1294 564 1252.5 430.5 c 128,-1,11
 1211 297 1211 297 1130 202 c 0,12,13
 959 0 959 0 651 0 c 2,14,-1
 192 0 l 1,15,-1
 192 640 l 1,16,-1
 73 640 l 1,0,-1
389 1240 m 1,17,-1
 389 808 l 1,18,-1
 565 808 l 1,19,-1
 565 640 l 1,20,-1
 389 640 l 1,21,-1
 389 171 l 1,22,-1
 637 171 l 2,23,24
 854 171 854 171 972 326 c 1,25,26
 1084 471 1084 471 1084 713 c 0,27,28
 1084 927 1084 927 980 1076 c 0,29,30
 866 1240 866 1240 677 1240 c 2,31,-1
 389 1240 l 1,17,-1
EndSplineSet
EndChar

StartChar: multiply
Encoding: 215 215 157
Width: 1038
GlyphClass: 2
Flags: W
LayerCount: 2
Fore
SplineSet
516 470 m 1,0,-1
 239 194 l 1,1,-1
 127 305 l 1,2,-1
 405 581 l 1,3,-1
 126 860 l 1,4,-1
 243 976 l 1,5,-1
 521 699 l 1,6,-1
 799 976 l 1,7,-1
 911 865 l 1,8,-1
 632 587 l 1,9,-1
 910 311 l 1,10,-1
 792 194 l 1,11,-1
 516 470 l 1,0,-1
EndSplineSet
EndChar

StartChar: Oslash
Encoding: 216 216 158
Width: 1485
GlyphClass: 2
Flags: W
LayerCount: 2
Fore
SplineSet
1167 1291 m 1,0,1
 1371 1099 1371 1099 1371 714 c 0,2,3
 1371 202 1371 202 1028 33 c 0,4,5
 908 -26 908 -26 730.5 -26 c 128,-1,6
 553 -26 553 -26 415 47 c 1,7,-1
 324 -103 l 1,8,-1
 195 -69 l 1,9,-1
 311 123 l 1,10,11
 113 310 113 310 113 703 c 0,12,13
 113 944 113 944 201 1126 c 0,14,15
 233 1193 233 1193 280 1248 c 1,16,-1
 279 1248 l 1,17,18
 458 1442 458 1442 747 1442 c 0,19,20
 924 1442 924 1442 1062 1368 c 1,21,-1
 1152 1517 l 1,22,-1
 1283 1482 l 1,23,-1
 1167 1291 l 1,0,1
513 210 m 1,24,25
 609 149 609 149 721 149 c 0,26,27
 932 149 932 149 1049 284 c 1,28,29
 1161 426 1161 426 1161 715 c 0,30,31
 1161 977 1161 977 1064 1120 c 1,32,-1
 513 210 l 1,24,25
968 1212 m 1,33,34
 875 1268 875 1268 751 1268 c 128,-1,35
 627 1268 627 1268 545 1224.5 c 128,-1,36
 463 1181 463 1181 413 1105 c 0,37,38
 320 964 320 964 320 708 c 128,-1,39
 320 452 320 452 419 302 c 1,40,-1
 968 1212 l 1,33,34
EndSplineSet
EndChar

StartChar: Thorn
Encoding: 222 222 164
Width: 1160
GlyphClass: 2
Flags: W
LayerCount: 2
Fore
SplineSet
606 1269 m 2,0,1
 1099 1269 1099 1269 1099 868 c 0,2,3
 1099 444 1099 444 569 444 c 2,4,-1
 385 444 l 1,5,-1
 385 0 l 1,6,-1
 189 0 l 1,7,-1
 189 1457 l 1,8,-1
 385 1457 l 1,9,-1
 385 1269 l 1,10,-1
 606 1269 l 2,0,1
385 614 m 1,11,-1
 480 614 l 2,12,13
 618 614 618 614 670.5 622 c 128,-1,14
 723 630 723 630 762.5 645.5 c 128,-1,15
 802 661 802 661 832 689 c 0,16,17
 894 748 894 748 894 868 c 0,18,19
 894 1000 894 1000 803 1056 c 0,20,21
 733 1100 733 1100 599 1100 c 2,22,-1
 385 1100 l 1,23,-1
 385 614 l 1,11,-1
EndSplineSet
EndChar

StartChar: germandbls
Encoding: 223 223 165
Width: 1200
GlyphClass: 2
Flags: W
LayerCount: 2
Fore
SplineSet
159 1083 m 2,0,1
 159 1467 159 1467 590 1467 c 0,2,3
 866 1467 866 1467 962 1308 c 1,4,5
 997 1252 997 1252 997 1191.5 c 128,-1,6
 997 1131 997 1131 987 1099.5 c 128,-1,7
 977 1068 977 1068 960 1041 c 0,8,9
 933 998 933 998 885 958 c 128,-1,10
 837 918 837 918 812 896.5 c 128,-1,11
 787 875 787 875 772 858 c 1,12,13
 743 828 743 828 743 805.5 c 128,-1,14
 743 783 743 783 748.5 769.5 c 128,-1,15
 754 756 754 756 766 742 c 0,16,17
 788 718 788 718 841.5 683 c 128,-1,18
 895 648 895 648 947 612.5 c 128,-1,19
 999 577 999 577 1041 534 c 0,20,21
 1137 436 1137 436 1137 318 c 0,22,23
 1137 156 1137 156 1027 66 c 0,24,25
 924 -17 924 -17 760 -17 c 0,26,27
 644 -17 644 -17 586.5 14.5 c 128,-1,28
 529 46 529 46 499 84 c 128,-1,29
 469 122 469 122 455 181 c 1,30,-1
 561 262 l 1,31,32
 590 202 590 202 643.5 168 c 128,-1,33
 697 134 697 134 756.5 134 c 128,-1,34
 816 134 816 134 851 148.5 c 128,-1,35
 886 163 886 163 908 186 c 0,36,37
 948 229 948 229 948 284.5 c 128,-1,38
 948 340 948 340 931.5 372.5 c 128,-1,39
 915 405 915 405 886 432 c 0,40,41
 857 460 857 460 771 514 c 128,-1,42
 685 568 685 568 651.5 595 c 128,-1,43
 618 622 618 622 596 650 c 1,44,45
 555 706 555 706 555 763 c 128,-1,46
 555 820 555 820 567.5 852.5 c 128,-1,47
 580 885 580 885 600 912 c 0,48,49
 629 950 629 950 677.5 987 c 128,-1,50
 726 1024 726 1024 745 1039.5 c 128,-1,51
 764 1055 764 1055 778 1072 c 0,52,53
 809 1109 809 1109 809 1171.5 c 128,-1,54
 809 1234 809 1234 753 1277.5 c 128,-1,55
 697 1321 697 1321 585 1321 c 0,56,57
 407 1321 407 1321 363 1194 c 0,58,59
 347 1148 347 1148 347 1081 c 2,60,-1
 347 0 l 1,61,-1
 159 0 l 1,62,-1
 159 1083 l 2,0,1
EndSplineSet
EndChar

StartChar: ae
Encoding: 230 230 172
Width: 1658
GlyphClass: 2
Flags: W
LayerCount: 2
Fore
SplineSet
1183 139 m 0,0,1
 1349 139 1349 139 1480 246 c 1,2,-1
 1529 116 l 1,3,4
 1447 49 1447 49 1395 25 c 0,5,6
 1293 -22 1293 -22 1179 -22 c 0,7,8
 1000 -22 1000 -22 879 102 c 0,9,10
 834 148 834 148 804 216 c 1,11,12
 749 92 749 92 628 28 c 0,13,14
 528 -26 528 -26 428.5 -26 c 128,-1,15
 329 -26 329 -26 268 -5 c 128,-1,16
 207 16 207 16 164 56 c 0,17,18
 76 138 76 138 76 279 c 0,19,20
 76 518 76 518 358 600 c 0,21,22
 469 632 469 632 556.5 632 c 128,-1,23
 644 632 644 632 706 627 c 1,24,-1
 706 688 l 2,25,26
 706 869 706 869 587 898 c 0,27,28
 550 907 550 907 508.5 907 c 128,-1,29
 467 907 467 907 433 899 c 128,-1,30
 399 891 399 891 368 878 c 1,31,32
 320 856 320 856 247 808 c 1,33,34
 225 834 225 834 149 916 c 1,35,36
 240 990 240 990 300 1015 c 1,37,38
 403 1060 403 1060 511 1060 c 0,39,40
 733 1060 733 1060 833 893 c 1,41,42
 922 1013 922 1013 1068 1048 c 0,43,44
 1111 1059 1111 1059 1152 1059 c 0,45,46
 1357 1059 1357 1059 1466 916 c 1,47,48
 1565 789 1565 789 1565 580 c 2,49,-1
 1565 480 l 1,50,-1
 898 480 l 1,51,52
 901 243 901 243 1054 166 c 0,53,54
 1107 139 1107 139 1183 139 c 0,0,1
1368 631 m 1,55,56
 1358 904 1358 904 1148 904 c 0,57,58
 1052 904 1052 904 986 839 c 128,-1,59
 920 774 920 774 905 647 c 1,60,-1
 905 631 l 1,61,-1
 1368 631 l 1,55,56
448 131 m 0,62,63
 581 131 581 131 645 217 c 1,64,65
 695 278 695 278 702 398 c 0,66,67
 705 439 705 439 705 491 c 1,68,-1
 676 491 l 2,69,70
 511 491 511 491 443.5 472 c 128,-1,71
 376 453 376 453 342 431 c 0,72,73
 269 383 269 383 269 292 c 0,74,75
 269 183 269 183 366 144 c 0,76,77
 400 131 400 131 448 131 c 0,62,63
EndSplineSet
EndChar

StartChar: eth
Encoding: 240 240 182
Width: 1102
GlyphClass: 2
Flags: W
LayerCount: 2
Fore
SplineSet
453 1267 m 0,0,1
 340 1267 340 1267 204 1206 c 1,2,-1
 151 1328 l 1,3,4
 322 1408 322 1408 450 1408 c 0,5,6
 701 1408 701 1408 843 1202 c 1,7,-1
 1045 1280 l 1,8,-1
 1078 1173 l 1,9,-1
 896 1106 l 1,10,11
 977 918 977 918 977 643 c 0,12,13
 977 175 977 175 736 34 c 0,14,15
 639 -22 639 -22 531 -22 c 128,-1,16
 423 -22 423 -22 344.5 6.5 c 128,-1,17
 266 35 266 35 207 92 c 0,18,19
 79 216 79 216 79 435 c 0,20,21
 79 636 79 636 196 752 c 0,22,23
 307 861 307 861 488 861 c 128,-1,24
 669 861 669 861 798 702 c 1,25,26
 798 915 798 915 749 1048 c 1,27,28
 715 1038 715 1038 630 1004 c 2,29,-1
 543 970 l 1,30,-1
 510 1076 l 1,31,-1
 697 1145 l 1,32,33
 602 1267 602 1267 453 1267 c 0,0,1
518 723 m 0,34,35
 457 723 457 723 408 703 c 128,-1,36
 359 683 359 683 325 646 c 0,37,38
 254 569 254 569 254 436 c 0,39,40
 254 292 254 292 323.5 207 c 128,-1,41
 393 122 393 122 513 122 c 256,42,43
 633 122 633 122 710 216 c 1,44,45
 788 309 788 309 788 449 c 0,46,47
 788 564 788 564 715 642 c 0,48,49
 640 723 640 723 518 723 c 0,34,35
EndSplineSet
EndChar

StartChar: divide
Encoding: 247 247 189
Width: 1206
GlyphClass: 2
Flags: W
LayerCount: 2
Fore
SplineSet
129 675 m 1,0,-1
 1077 675 l 1,1,-1
 1077 513 l 1,2,-1
 129 513 l 1,3,-1
 129 675 l 1,0,-1
489 1053 m 1,4,-1
 720 1053 l 1,5,-1
 720 814 l 1,6,-1
 489 814 l 1,7,-1
 489 1053 l 1,4,-1
489 366 m 1,8,-1
 720 366 l 1,9,-1
 720 127 l 1,10,-1
 489 127 l 1,11,-1
 489 366 l 1,8,-1
EndSplineSet
EndChar

StartChar: oslash
Encoding: 248 248 190
Width: 1129
GlyphClass: 2
Flags: W
LayerCount: 2
Fore
SplineSet
889 918 m 1,0,1
 1031 772 1031 772 1031 512 c 0,2,3
 1031 272 1031 272 910 130 c 1,4,5
 785 -19 785 -19 560 -19 c 0,6,7
 443 -19 443 -19 349 26 c 1,8,-1
 262 -119 l 1,9,-1
 133 -85 l 1,10,-1
 244 99 l 1,11,12
 98 239 98 239 98 503 c 0,13,14
 98 739 98 739 210 882 c 0,15,16
 334 1041 334 1041 572 1041 c 0,17,18
 690 1041 690 1041 784 995 c 1,19,-1
 890 1171 l 1,20,-1
 1021 1136 l 1,21,-1
 889 918 l 1,0,1
337 253 m 1,22,-1
 703 861 l 1,23,24
 645 895 645 895 579.5 895 c 128,-1,25
 514 895 514 895 462.5 873.5 c 128,-1,26
 411 852 411 852 371 804 c 0,27,28
 284 701 284 701 284 523.5 c 128,-1,29
 284 346 284 346 337 253 c 1,22,-1
429 158 m 1,30,31
 484 127 484 127 554 127 c 128,-1,32
 624 127 624 127 675.5 148.5 c 128,-1,33
 727 170 727 170 764 216 c 0,34,35
 844 315 844 315 844 489 c 128,-1,36
 844 663 844 663 794 761 c 1,37,-1
 429 158 l 1,30,31
EndSplineSet
EndChar

StartChar: thorn
Encoding: 254 254 196
Width: 1166
GlyphClass: 2
Flags: W
LayerCount: 2
Fore
SplineSet
343 892 m 1,0,1
 466 1042 466 1042 650 1042 c 0,2,3
 855 1042 855 1042 966 885 c 0,4,5
 1066 744 1066 744 1066 522 c 0,6,7
 1066 303 1066 303 970 156 c 0,8,9
 858 -15 858 -15 644 -15 c 0,10,11
 525 -15 525 -15 412 66 c 0,12,13
 374 93 374 93 340 132 c 1,14,-1
 345 19 l 1,15,-1
 345 -416 l 1,16,-1
 158 -416 l 1,17,-1
 158 41 l 1,18,-1
 159 304 l 1,19,-1
 159 1449 l 1,20,-1
 345 1449 l 1,21,-1
 345 1124 l 1,22,-1
 343 892 l 1,0,1
613 895 m 0,23,24
 344 895 344 895 344 511 c 0,25,26
 344 135 344 135 609 135 c 0,27,28
 747 135 747 135 813 251 c 0,29,30
 869 350 869 350 869 516 c 0,31,32
 869 769 869 769 742 860 c 0,33,34
 692 895 692 895 613 895 c 0,23,24
EndSplineSet
EndChar

StartChar: dotlessi
Encoding: 305 305 214
Width: 497
GlyphClass: 2
Flags: W
LayerCount: 2
Fore
SplineSet
155 1019 m 1,0,-1
 339 1019 l 1,1,-1
 339 0 l 1,2,-1
 155 0 l 1,3,-1
 155 1019 l 1,0,-1
EndSplineSet
EndChar

StartChar: Lslash
Encoding: 321 321 219
Width: 1030
GlyphClass: 2
Flags: W
LayerCount: 2
Fore
SplineSet
196 0 m 1,0,-1
 196 516 l 1,1,-1
 74 441 l 1,2,-1
 74 607 l 1,3,-1
 196 681 l 1,4,-1
 196 1412 l 1,5,-1
 391 1412 l 1,6,-1
 391 799 l 1,7,-1
 763 1025 l 1,8,-1
 763 859 l 1,9,-1
 391 635 l 1,10,-1
 391 180 l 1,11,-1
 996 180 l 1,12,-1
 996 0 l 1,13,-1
 196 0 l 1,0,-1
EndSplineSet
EndChar

StartChar: lslash
Encoding: 322 322 220
Width: 973
GlyphClass: 2
Flags: W
LayerCount: 2
Fore
SplineSet
392 571 m 1,0,-1
 35 443 l 1,1,-1
 35 606 l 1,2,-1
 392 735 l 1,3,-1
 392 1449 l 1,4,-1
 581 1449 l 1,5,-1
 581 804 l 1,6,-1
 943 934 l 1,7,-1
 943 770 l 1,8,-1
 581 639 l 1,9,-1
 581 0 l 1,10,-1
 392 0 l 1,11,-1
 392 571 l 1,0,-1
EndSplineSet
EndChar

StartChar: OE
Encoding: 338 338 227
Width: 1999
GlyphClass: 2
Flags: W
LayerCount: 2
Fore
SplineSet
1875 0 m 1,0,-1
 743 0 l 2,1,2
 472 0 472 0 298 176 c 0,3,4
 107 369 107 369 107 715 c 0,5,6
 107 993 107 993 244 1180 c 0,7,8
 349 1324 349 1324 551 1382 c 0,9,10
 655 1412 655 1412 792 1412 c 2,11,-1
 1869 1412 l 1,12,-1
 1869 1240 l 1,13,-1
 1208 1240 l 1,14,-1
 1208 817 l 1,15,-1
 1839 817 l 1,16,-1
 1839 640 l 1,17,-1
 1208 640 l 1,18,-1
 1208 180 l 1,19,-1
 1875 180 l 1,20,-1
 1875 0 l 1,0,-1
1000 1240 m 1,21,-1
 792 1240 l 2,22,23
 593 1240 593 1240 476 1142 c 0,24,25
 321 1013 321 1013 321 718 c 0,26,27
 321 402 321 402 490 274 c 0,28,29
 613 180 613 180 823 180 c 2,30,-1
 1000 180 l 1,31,-1
 1000 1240 l 1,21,-1
EndSplineSet
EndChar

StartChar: oe
Encoding: 339 339 228
Width: 1832
GlyphClass: 2
Flags: W
LayerCount: 2
Fore
SplineSet
960 198 m 1,0,1
 837 -26 837 -26 579 -26 c 0,2,3
 258 -26 258 -26 140 254 c 0,4,5
 94 363 94 363 94 477 c 128,-1,6
 94 591 94 591 126.5 683.5 c 128,-1,7
 159 776 159 776 222 846 c 0,8,9
 359 1000 359 1000 589 1000 c 0,10,11
 741 1000 741 1000 845 918 c 0,12,13
 910 868 910 868 962 772 c 1,14,15
 1039 949 1039 949 1232 990 c 0,16,17
 1279 1000 1279 1000 1352 1000 c 128,-1,18
 1425 1000 1425 1000 1491.5 976 c 128,-1,19
 1558 952 1558 952 1603 911.5 c 128,-1,20
 1648 871 1648 871 1675 819.5 c 128,-1,21
 1702 768 1702 768 1716 712 c 0,22,23
 1738 629 1738 629 1741 504 c 1,24,-1
 1741 458 l 1,25,-1
 1061 458 l 1,26,27
 1057 438 1057 438 1057 398.5 c 128,-1,28
 1057 359 1057 359 1077.5 307 c 128,-1,29
 1098 255 1098 255 1134 214 c 0,30,31
 1213 124 1213 124 1324 124 c 0,32,33
 1408 124 1408 124 1468 178 c 0,34,35
 1526 231 1526 231 1538 319 c 1,36,-1
 1727 319 l 1,37,38
 1700 125 1700 125 1559 37 c 0,39,40
 1457 -27 1457 -27 1331 -27 c 0,41,42
 1148 -27 1148 -27 1020 110 c 0,43,44
 983 151 983 151 960 198 c 1,0,1
315.5 621.5 m 128,-1,46
 302 560 302 560 302 524 c 128,-1,47
 302 488 302 488 303 454 c 128,-1,48
 304 420 304 420 312 378 c 128,-1,49
 320 336 320 336 337.5 290.5 c 128,-1,50
 355 245 355 245 387 208 c 0,51,52
 460 122 460 122 591 122 c 0,53,54
 782 122 782 122 848 326 c 0,55,56
 873 402 873 402 873 481.5 c 128,-1,57
 873 561 873 561 858.5 625 c 128,-1,58
 844 689 844 689 811 739 c 0,59,60
 737 851 737 851 594 851 c 0,61,62
 439 851 439 851 362 734 c 0,63,45
 329 683 329 683 315.5 621.5 c 128,-1,46
1541 597 m 1,64,65
 1529 855 1529 855 1324 855 c 0,66,67
 1193 855 1193 855 1125 763 c 0,68,69
 1075 696 1075 696 1067 597 c 1,70,-1
 1541 597 l 1,64,65
EndSplineSet
EndChar

StartChar: florin
Encoding: 402 402 254
Width: 701
GlyphClass: 2
Flags: W
LayerCount: 2
Fore
SplineSet
-71 -228 m 1,0,1
 -47 -232 -47 -232 -14.5 -232 c 128,-1,2
 18 -232 18 -232 47.5 -209.5 c 128,-1,3
 77 -187 77 -187 92.5 -144.5 c 128,-1,4
 108 -102 108 -102 117 -39.5 c 128,-1,5
 126 23 126 23 141 104 c 2,6,-1
 252 680 l 1,7,-1
 78 680 l 1,8,-1
 105 823 l 1,9,-1
 281 823 l 1,10,-1
 324 1030 l 1,11,12
 353 1176 353 1176 400 1232.5 c 128,-1,13
 447 1289 447 1289 504.5 1315.5 c 128,-1,14
 562 1342 562 1342 620 1342 c 0,15,16
 688 1342 688 1342 763 1331 c 1,17,-1
 739 1180 l 1,18,-1
 667 1186 l 1,19,20
 557 1186 557 1186 520 1082 c 0,21,22
 509 1053 509 1053 503 1023 c 2,23,-1
 460 823 l 1,24,-1
 665 823 l 1,25,26
 646 729 646 729 635 680 c 1,27,-1
 435 680 l 1,28,-1
 318 54 l 2,29,30
 298 -53 298 -53 275.5 -134.5 c 128,-1,31
 253 -216 253 -216 214 -272 c 0,32,33
 135 -384 135 -384 -47 -384 c 0,34,35
 -73 -384 -73 -384 -97 -380 c 1,36,-1
 -71 -228 l 1,0,1
EndSplineSet
EndChar

StartChar: circumflex
Encoding: 710 710 283
Width: 816
GlyphClass: 2
Flags: W
LayerCount: 2
Fore
SplineSet
563 1187 m 1,0,-1
 400 1413 l 1,1,-1
 234 1187 l 1,2,-1
 53 1187 l 1,3,-1
 313 1545 l 1,4,-1
 495 1545 l 1,5,-1
 751 1187 l 1,6,-1
 563 1187 l 1,0,-1
EndSplineSet
EndChar

StartChar: caron
Encoding: 711 711 284
Width: 546
GlyphClass: 2
Flags: W
LayerCount: 2
Fore
SplineSet
369 1139 m 1,0,-1
 185 1139 l 1,1,-1
 -38 1449 l 1,2,-1
 139 1449 l 1,3,-1
 275 1269 l 1,4,-1
 406 1449 l 1,5,-1
 593 1449 l 1,6,-1
 369 1139 l 1,0,-1
EndSplineSet
EndChar

StartChar: breve
Encoding: 728 728 285
Width: 546
GlyphClass: 2
Flags: W
LayerCount: 2
Fore
SplineSet
542 1472 m 1,0,1
 538 1153 538 1153 268 1153 c 0,2,3
 61 1153 61 1153 14 1350 c 0,4,5
 1 1402 1 1402 1 1472 c 1,6,-1
 101 1472 l 1,7,8
 112 1290 112 1290 268 1290 c 0,9,10
 364 1290 364 1290 410 1362 c 0,11,12
 436 1403 436 1403 443 1472 c 1,13,-1
 542 1472 l 1,0,1
EndSplineSet
EndChar

StartChar: dotaccent
Encoding: 729 729 286
Width: 546
GlyphClass: 2
Flags: W
LayerCount: 2
Fore
SplineSet
177 1410 m 1,0,-1
 367 1410 l 1,1,-1
 367 1197 l 1,2,-1
 177 1197 l 1,3,-1
 177 1410 l 1,0,-1
EndSplineSet
EndChar

StartChar: ring
Encoding: 730 730 287
Width: 816
GlyphClass: 2
Flags: W
LayerCount: 2
Fore
SplineSet
503 1466 m 128,-1,1
 483 1485 483 1485 442.5 1500 c 128,-1,2
 402 1515 402 1515 362.5 1500 c 128,-1,3
 323 1485 323 1485 303 1466 c 0,4,5
 259 1424 259 1424 259 1363 c 0,6,7
 259 1270 259 1270 344 1236 c 0,8,9
 371 1226 371 1226 403 1226 c 128,-1,10
 435 1226 435 1226 461.5 1236.5 c 128,-1,11
 488 1247 488 1247 507 1266 c 0,12,13
 547 1304 547 1304 547 1349.5 c 128,-1,14
 547 1395 547 1395 535 1421 c 128,-1,0
 523 1447 523 1447 503 1466 c 128,-1,1
403 1598 m 256,15,16
 506 1598 506 1598 574 1532 c 0,17,18
 640 1467 640 1467 640 1363 c 0,19,20
 640 1262 640 1262 574 1197 c 0,21,22
 507 1132 507 1132 403 1132 c 256,23,24
 299 1132 299 1132 232 1197 c 0,25,26
 166 1262 166 1262 166 1363 c 0,27,28
 166 1467 166 1467 232 1532 c 0,29,30
 300 1598 300 1598 403 1598 c 256,15,16
EndSplineSet
EndChar

StartChar: ogonek
Encoding: 731 731 288
Width: 546
GlyphClass: 2
Flags: W
LayerCount: 2
Fore
SplineSet
84 -233 m 0,0,1
 84 -88 84 -88 324 15 c 1,2,-1
 423 15 l 1,3,4
 294 -72 294 -72 262 -126 c 0,5,6
 248 -150 248 -150 248 -180 c 128,-1,7
 248 -210 248 -210 264.5 -228 c 128,-1,8
 281 -246 281 -246 302 -254 c 1,9,10
 329 -266 329 -266 368.5 -266 c 128,-1,11
 408 -266 408 -266 459 -236 c 1,12,-1
 459 -332 l 1,13,14
 360 -384 360 -384 289.5 -384 c 128,-1,15
 219 -384 219 -384 183 -369.5 c 128,-1,16
 147 -355 147 -355 125 -332 c 0,17,18
 84 -291 84 -291 84 -233 c 0,0,1
EndSplineSet
EndChar

StartChar: tilde
Encoding: 732 732 289
Width: 816
GlyphClass: 2
Flags: W
LayerCount: 2
Fore
SplineSet
541 1341 m 0,0,1
 605 1341 605 1341 622 1428 c 1,2,-1
 722 1428 l 1,3,4
 713 1252 713 1252 604 1206 c 0,5,6
 571 1193 571 1193 540 1193 c 128,-1,7
 509 1193 509 1193 474.5 1205 c 128,-1,8
 440 1217 440 1217 405 1231 c 0,9,10
 310 1269 310 1269 283 1269 c 128,-1,11
 256 1269 256 1269 238 1249.5 c 128,-1,12
 220 1230 220 1230 204 1183 c 1,13,-1
 108 1183 l 1,14,15
 108 1283 108 1283 164 1350 c 0,16,17
 217 1414 217 1414 294 1414 c 0,18,19
 336 1414 336 1414 395 1389 c 0,20,21
 507 1341 507 1341 541 1341 c 0,0,1
EndSplineSet
EndChar

StartChar: hungarumlaut
Encoding: 733 733 290
Width: 786
GlyphClass: 2
Flags: W
LayerCount: 2
Fore
SplineSet
235 1451 m 1,0,-1
 452 1451 l 1,1,-1
 204 1158 l 1,2,-1
 68 1158 l 1,3,-1
 235 1451 l 1,0,-1
545 1451 m 1,4,-1
 761 1451 l 1,5,-1
 513 1158 l 1,6,-1
 376 1158 l 1,7,-1
 545 1451 l 1,4,-1
EndSplineSet
EndChar

StartChar: uni030F
Encoding: 783 783 291
Width: 786
GlyphClass: 2
Flags: W
LayerCount: 2
Fore
SplineSet
729 1158 m 1,0,-1
 593 1158 l 1,1,-1
 345 1451 l 1,2,-1
 562 1451 l 1,3,-1
 729 1158 l 1,0,-1
421 1158 m 1,4,-1
 284 1158 l 1,5,-1
 36 1451 l 1,6,-1
 252 1451 l 1,7,-1
 421 1158 l 1,4,-1
EndSplineSet
EndChar

StartChar: uni0311
Encoding: 785 785 292
Width: 546
GlyphClass: 2
Flags: W
LayerCount: 2
Fore
SplineSet
268 1335 m 0,0,1
 112 1335 112 1335 101 1153 c 1,2,-1
 1 1153 l 1,3,4
 1 1392 1 1392 160 1454 c 0,5,6
 204 1472 204 1472 268 1472 c 0,7,8
 538 1472 538 1472 542 1153 c 1,9,-1
 443 1153 l 1,10,11
 431 1266 431 1266 358 1314 c 1,12,13
 324 1335 324 1335 268 1335 c 0,0,1
EndSplineSet
EndChar

StartChar: uni0326
Encoding: 806 806 293
Width: 521
GlyphClass: 2
Flags: W
LayerCount: 2
Fore
SplineSet
38 -599 m 1,0,-1
 150 -107 l 1,1,-1
 372 -107 l 1,2,-1
 178 -599 l 1,3,-1
 38 -599 l 1,0,-1
EndSplineSet
EndChar

StartChar: uni03A9
Encoding: 937 937 294
Width: 1447
GlyphClass: 2
Flags: W
LayerCount: 2
Fore
SplineSet
390 153 m 1,0,1
 139 399 139 399 139 736 c 0,2,3
 139 1019 139 1019 307 1202 c 0,4,5
 475 1386 475 1386 730 1386 c 0,6,7
 990 1386 990 1386 1154 1190 c 1,8,9
 1308 1004 1308 1004 1308 747 c 0,10,11
 1308 467 1308 467 1148 258 c 0,12,13
 1101 198 1101 198 1051 153 c 1,14,-1
 1334 153 l 1,15,-1
 1334 0 l 1,16,-1
 845 0 l 1,17,-1
 845 112 l 1,18,19
 1035 242 1035 242 1103 508 c 0,20,21
 1127 603 1127 603 1127 705 c 128,-1,22
 1127 807 1127 807 1101.5 899.5 c 128,-1,23
 1076 992 1076 992 1026 1066 c 0,24,25
 912 1232 912 1232 728 1232 c 0,26,27
 546 1232 546 1232 432 1080 c 1,28,29
 321 935 321 935 321 708 c 0,30,31
 321 512 321 512 408 342 c 0,32,33
 485 191 485 191 601 112 c 1,34,-1
 601 0 l 1,35,-1
 112 0 l 1,36,-1
 112 153 l 1,37,-1
 390 153 l 1,0,1
EndSplineSet
EndChar

StartChar: pi
Encoding: 960 960 295
Width: 1179
GlyphClass: 2
Flags: W
LayerCount: 2
Fore
SplineSet
49 960 m 1,0,1
 155 1018 155 1018 343 1018 c 2,2,-1
 1129 1018 l 1,3,-1
 1112 861 l 1,4,-1
 962 861 l 1,5,-1
 962 292 l 2,6,7
 962 122 962 122 989 0 c 1,8,-1
 821 0 l 1,9,10
 785 72 785 72 785 281 c 2,11,-1
 785 861 l 1,12,-1
 461 861 l 1,13,14
 441 455 441 455 356 114 c 0,15,16
 339 49 339 49 321 0 c 1,17,-1
 146 0 l 1,18,19
 231 259 231 259 276 726 c 0,20,21
 283 799 283 799 286 861 c 1,22,23
 148 857 148 857 76 837 c 1,24,-1
 49 960 l 1,0,1
EndSplineSet
EndChar

StartChar: endash
Encoding: 8211 8211 296
Width: 1207
GlyphClass: 2
Flags: W
LayerCount: 2
Fore
SplineSet
149 444 m 1,0,-1
 149 608 l 1,1,-1
 1057 608 l 1,2,-1
 1057 444 l 1,3,-1
 149 444 l 1,0,-1
EndSplineSet
EndChar

StartChar: emdash
Encoding: 8212 8212 297
Width: 1906
GlyphClass: 2
Flags: W
LayerCount: 2
Fore
SplineSet
150 444 m 1,0,-1
 150 608 l 1,1,-1
 1756 608 l 1,2,-1
 1756 444 l 1,3,-1
 150 444 l 1,0,-1
EndSplineSet
EndChar

StartChar: quoteleft
Encoding: 8216 8216 298
Width: 517
GlyphClass: 2
Flags: W
LayerCount: 2
Fore
SplineSet
92 923 m 1,0,-1
 290 1412 l 1,1,-1
 431 1412 l 1,2,-1
 312 923 l 1,3,-1
 92 923 l 1,0,-1
EndSplineSet
EndChar

StartChar: quoteright
Encoding: 8217 8217 299
Width: 501
GlyphClass: 2
Flags: W
LayerCount: 2
Fore
SplineSet
109 923 m 1,0,-1
 220 1412 l 1,1,-1
 443 1412 l 1,2,-1
 247 923 l 1,3,-1
 109 923 l 1,0,-1
EndSplineSet
EndChar

StartChar: quotesinglbase
Encoding: 8218 8218 300
Width: 511
GlyphClass: 2
Flags: W
LayerCount: 2
Fore
SplineSet
55 -256 m 1,0,-1
 166 223 l 1,1,-1
 387 223 l 1,2,-1
 194 -256 l 1,3,-1
 55 -256 l 1,0,-1
EndSplineSet
EndChar

StartChar: quotedblleft
Encoding: 8220 8220 301
Width: 878
GlyphClass: 2
Flags: W
LayerCount: 2
Fore
SplineSet
454 923 m 1,0,-1
 652 1412 l 1,1,-1
 793 1412 l 1,2,-1
 674 923 l 1,3,-1
 454 923 l 1,0,-1
92 923 m 1,4,-1
 290 1412 l 1,5,-1
 431 1412 l 1,6,-1
 312 923 l 1,7,-1
 92 923 l 1,4,-1
EndSplineSet
EndChar

StartChar: quotedblright
Encoding: 8221 8221 302
Width: 866
GlyphClass: 2
Flags: W
LayerCount: 2
Fore
SplineSet
474 923 m 1,0,-1
 585 1412 l 1,1,-1
 808 1412 l 1,2,-1
 612 923 l 1,3,-1
 474 923 l 1,0,-1
109 923 m 1,4,-1
 220 1412 l 1,5,-1
 443 1412 l 1,6,-1
 247 923 l 1,7,-1
 109 923 l 1,4,-1
EndSplineSet
EndChar

StartChar: quotedblbase
Encoding: 8222 8222 303
Width: 875
GlyphClass: 2
Flags: W
LayerCount: 2
Fore
SplineSet
419 -256 m 1,0,-1
 529 223 l 1,1,-1
 751 223 l 1,2,-1
 558 -256 l 1,3,-1
 419 -256 l 1,0,-1
55 -256 m 1,4,-1
 165 223 l 1,5,-1
 387 223 l 1,6,-1
 194 -256 l 1,7,-1
 55 -256 l 1,4,-1
EndSplineSet
EndChar

StartChar: dagger
Encoding: 8224 8224 304
Width: 948
GlyphClass: 2
Flags: W
LayerCount: 2
Fore
SplineSet
394 929 m 1,0,-1
 65 929 l 1,1,-1
 65 1088 l 1,2,-1
 394 1088 l 1,3,-1
 394 1412 l 1,4,-1
 558 1412 l 1,5,-1
 558 1088 l 1,6,-1
 883 1088 l 1,7,-1
 883 929 l 1,8,-1
 558 929 l 1,9,-1
 558 0 l 1,10,-1
 394 0 l 1,11,-1
 394 929 l 1,0,-1
EndSplineSet
EndChar

StartChar: daggerdbl
Encoding: 8225 8225 305
Width: 1073
GlyphClass: 2
Flags: W
LayerCount: 2
Fore
SplineSet
453 327 m 1,0,-1
 124 327 l 1,1,-1
 124 486 l 1,2,-1
 453 486 l 1,3,-1
 453 929 l 1,4,-1
 124 929 l 1,5,-1
 124 1089 l 1,6,-1
 453 1089 l 1,7,-1
 453 1412 l 1,8,-1
 619 1412 l 1,9,-1
 619 1089 l 1,10,-1
 948 1089 l 1,11,-1
 948 929 l 1,12,-1
 619 929 l 1,13,-1
 619 486 l 1,14,-1
 948 486 l 1,15,-1
 948 327 l 1,16,-1
 619 327 l 1,17,-1
 619 0 l 1,18,-1
 453 0 l 1,19,-1
 453 327 l 1,0,-1
EndSplineSet
EndChar

StartChar: bullet
Encoding: 8226 8226 306
Width: 807
GlyphClass: 2
Flags: W
LayerCount: 2
Fore
SplineSet
106 714 m 0,0,1
 106 785 106 785 129.5 843 c 128,-1,2
 153 901 153 901 193 941 c 0,3,4
 276 1024 276 1024 403 1024 c 128,-1,5
 530 1024 530 1024 614 940 c 0,6,7
 701 853 701 853 701 713 c 0,8,9
 701 574 701 574 614 488 c 1,10,11
 530 403 530 403 403 403 c 0,12,13
 277 403 277 403 192 488 c 0,14,15
 106 574 106 574 106 714 c 0,0,1
EndSplineSet
EndChar

StartChar: ellipsis
Encoding: 8230 8230 307
Width: 1752
GlyphClass: 2
Flags: W
LayerCount: 2
Fore
SplineSet
144 248 m 1,0,-1
 369 248 l 1,1,-1
 369 0 l 1,2,-1
 144 0 l 1,3,-1
 144 248 l 1,0,-1
762 248 m 1,4,-1
 989 248 l 1,5,-1
 989 0 l 1,6,-1
 762 0 l 1,7,-1
 762 248 l 1,4,-1
1382 248 m 1,8,-1
 1608 248 l 1,9,-1
 1608 0 l 1,10,-1
 1382 0 l 1,11,-1
 1382 248 l 1,8,-1
EndSplineSet
EndChar

StartChar: perthousand
Encoding: 8240 8240 308
Width: 2361
GlyphClass: 2
Flags: W
LayerCount: 2
Fore
SplineSet
538 1047 m 128,-1,1
 538 1309 538 1309 389 1309 c 0,2,3
 262 1309 262 1309 243 1136 c 0,4,5
 238 1090 238 1090 238 1046 c 0,6,7
 238 934 238 934 259 884 c 128,-1,8
 280 834 280 834 309.5 809.5 c 128,-1,9
 339 785 339 785 389 785 c 0,10,0
 538 785 538 785 538 1047 c 128,-1,1
695 1045 m 0,11,12
 695 954 695 954 673.5 879.5 c 128,-1,13
 652 805 652 805 612 755 c 0,14,15
 530 653 530 653 387 653 c 0,16,17
 173 653 173 653 104 874 c 0,18,19
 82 947 82 947 82 1041 c 128,-1,20
 82 1135 82 1135 101 1208 c 128,-1,21
 120 1281 120 1281 159 1333 c 0,22,23
 241 1442 241 1442 396 1442 c 0,24,25
 547 1442 547 1442 624 1331 c 1,26,27
 695 1231 695 1231 695 1045 c 0,11,12
1408 371 m 128,-1,29
 1408 634 1408 634 1256 634 c 0,30,31
 1129 634 1129 634 1111 453 c 0,32,33
 1106 404 1106 404 1106 358 c 0,34,35
 1106 108 1106 108 1254 108 c 0,36,28
 1408 108 1408 108 1408 371 c 128,-1,29
1562 366 m 0,37,38
 1562 281 1562 281 1543.5 207.5 c 128,-1,39
 1525 134 1525 134 1487 82 c 0,40,41
 1408 -26 1408 -26 1255 -26 c 0,42,43
 1098 -26 1098 -26 1018 90 c 1,44,45
 950 191 950 191 950 368 c 0,46,47
 950 558 950 558 1033 662 c 1,48,49
 1113 764 1113 764 1255 764 c 0,50,51
 1426 764 1426 764 1510 613 c 0,52,53
 1562 520 1562 520 1562 366 c 0,37,38
1305 1442 m 1,54,55
 1097 1072 1097 1072 893.5 699.5 c 128,-1,56
 690 327 690 327 480 -40 c 1,57,-1
 330 -40 l 1,58,-1
 1156 1442 l 1,59,-1
 1305 1442 l 1,54,55
2132 375 m 128,-1,61
 2132 638 2132 638 1980 638 c 0,62,63
 1853 638 1853 638 1835 457 c 0,64,65
 1830 408 1830 408 1830 362 c 0,66,67
 1830 112 1830 112 1978 112 c 0,68,60
 2132 112 2132 112 2132 375 c 128,-1,61
2286 370 m 0,69,70
 2286 285 2286 285 2267.5 211.5 c 128,-1,71
 2249 138 2249 138 2211 86 c 0,72,73
 2132 -22 2132 -22 1979 -22 c 0,74,75
 1822 -22 1822 -22 1742 94 c 1,76,77
 1674 195 1674 195 1674 372 c 0,78,79
 1674 562 1674 562 1757 666 c 1,80,81
 1837 768 1837 768 1979 768 c 0,82,83
 2150 768 2150 768 2234 617 c 0,84,85
 2286 524 2286 524 2286 370 c 0,69,70
EndSplineSet
EndChar

StartChar: guilsinglleft
Encoding: 8249 8249 309
Width: 605
GlyphClass: 2
Flags: W
LayerCount: 2
Fore
SplineSet
347 108 m 1,0,-1
 93 495 l 1,1,-1
 93 514 l 1,2,-1
 348 900 l 1,3,-1
 490 863 l 1,4,-1
 282 503 l 1,5,-1
 492 141 l 1,6,-1
 347 108 l 1,0,-1
EndSplineSet
EndChar

StartChar: guilsinglright
Encoding: 8250 8250 310
Width: 605
GlyphClass: 2
Flags: W
LayerCount: 2
Fore
SplineSet
319 502 m 1,0,-1
 112 863 l 1,1,-1
 258 900 l 1,2,-1
 512 511 l 1,3,-1
 512 493 l 1,4,-1
 258 107 l 1,5,-1
 113 141 l 1,6,-1
 319 502 l 1,0,-1
EndSplineSet
EndChar

StartChar: fraction
Encoding: 8260 8260 311
Width: 910
GlyphClass: 2
Flags: W
LayerCount: 2
Fore
SplineSet
933 1400 m 1,0,-1
 121 -30 l 1,1,-1
 -28 -30 l 1,2,-1
 785 1400 l 1,3,-1
 933 1400 l 1,0,-1
EndSplineSet
EndChar

StartChar: foursuperior
Encoding: 8308 8308 312
Width: 944
GlyphClass: 2
Flags: W
LayerCount: 2
Fore
SplineSet
557 285 m 1,0,-1
 557 523 l 1,1,-1
 64 523 l 1,2,-1
 64 685 l 1,3,-1
 546 1390 l 1,4,-1
 707 1390 l 1,5,-1
 707 662 l 1,6,-1
 864 662 l 1,7,-1
 864 523 l 1,8,-1
 707 523 l 1,9,-1
 707 285 l 1,10,-1
 557 285 l 1,0,-1
206 662 m 1,11,-1
 557 662 l 1,12,-1
 557 1217 l 1,13,-1
 437 1012 l 1,14,-1
 206 662 l 1,11,-1
EndSplineSet
EndChar

StartChar: Euro
Encoding: 8364 8364 313
Width: 1265
GlyphClass: 2
Flags: W
LayerCount: 2
Fore
SplineSet
410 729 m 1,0,1
 405 686 405 686 405 655 c 128,-1,2
 405 624 405 624 411 587 c 1,3,-1
 812 587 l 1,4,-1
 770 454 l 1,5,-1
 426 454 l 1,6,7
 476 229 476 229 612 160 c 0,8,9
 660 136 660 136 722 136 c 0,10,11
 825 136 825 136 892 195.5 c 128,-1,12
 959 255 959 255 973 370 c 1,13,-1
 1147 363 l 1,14,15
 1143 233 1143 233 1060 122 c 0,16,17
 950 -26 950 -26 727 -26 c 0,18,19
 416 -26 416 -26 292 255 c 0,20,21
 252 344 252 344 233 454 c 1,22,-1
 79 454 l 1,23,-1
 120 587 l 1,24,-1
 217 587 l 1,25,26
 213 621 213 621 213 660 c 128,-1,27
 213 699 213 699 217 729 c 1,28,-1
 78 729 l 1,29,-1
 121 862 l 1,30,-1
 231 862 l 1,31,32
 270 1094 270 1094 400 1232 c 0,33,34
 535 1375 535 1375 734 1375 c 0,35,36
 902 1375 902 1375 1014 1273 c 1,37,38
 1134 1162 1134 1162 1144 967 c 1,39,-1
 960 967 l 1,40,41
 947 1152 947 1152 806 1200 c 0,42,43
 771 1212 771 1212 724.5 1212 c 128,-1,44
 678 1212 678 1212 628.5 1186.5 c 128,-1,45
 579 1161 579 1161 538 1114 c 0,46,47
 456 1019 456 1019 423 862 c 1,48,-1
 875 862 l 1,49,-1
 832 729 l 1,50,-1
 410 729 l 1,0,1
EndSplineSet
EndChar

StartChar: trademark
Encoding: 8482 8482 314
Width: 1603
GlyphClass: 2
Flags: W
LayerCount: 2
Fore
SplineSet
851 1222 m 1,0,-1
 826 1314 l 1,1,-1
 826 696 l 1,2,-1
 726 696 l 1,3,-1
 726 1412 l 1,4,-1
 897 1412 l 1,5,-1
 1080 846 l 1,6,-1
 1269 1412 l 1,7,-1
 1430 1412 l 1,8,-1
 1430 696 l 1,9,-1
 1330 696 l 1,10,-1
 1330 1318 l 1,11,-1
 1305 1226 l 1,12,-1
 1121 696 l 1,13,-1
 1027 696 l 1,14,-1
 851 1222 l 1,0,-1
310 1313 m 1,15,-1
 112 1313 l 1,16,-1
 112 1412 l 1,17,-1
 612 1412 l 1,18,-1
 612 1313 l 1,19,-1
 405 1313 l 1,20,-1
 405 696 l 1,21,-1
 310 696 l 1,22,-1
 310 1313 l 1,15,-1
EndSplineSet
EndChar

StartChar: partialdiff
Encoding: 8706 8706 315
Width: 1130
GlyphClass: 2
Flags: W
LayerCount: 2
Fore
SplineSet
594.5 1245.5 m 128,-1,1
 543 1267 543 1267 453.5 1267 c 128,-1,2
 364 1267 364 1267 228 1206 c 1,3,-1
 175 1328 l 1,4,5
 346 1408 346 1408 480 1408 c 128,-1,6
 614 1408 614 1408 709.5 1355 c 128,-1,7
 805 1302 805 1302 870 1202 c 0,8,9
 1001 1002 1001 1002 1001 643 c 0,10,11
 1001 175 1001 175 760 34 c 0,12,13
 663 -22 663 -22 555 -22 c 128,-1,14
 447 -22 447 -22 368.5 6.5 c 128,-1,15
 290 35 290 35 231 92 c 0,16,17
 103 216 103 216 103 435 c 0,18,19
 103 636 103 636 220 752 c 0,20,21
 331 861 331 861 512 861 c 128,-1,22
 693 861 693 861 822 702 c 1,23,-1
 823 747 l 1,24,25
 823 1052 823 1052 684 1186 c 0,26,0
 646 1224 646 1224 594.5 1245.5 c 128,-1,1
542 723 m 0,27,28
 481 723 481 723 432 703 c 128,-1,29
 383 683 383 683 349 646 c 0,30,31
 278 569 278 569 278 436 c 0,32,33
 278 292 278 292 347.5 207 c 128,-1,34
 417 122 417 122 537 122 c 256,35,36
 657 122 657 122 734 216 c 1,37,38
 812 309 812 309 812 449 c 0,39,40
 812 564 812 564 739 642 c 0,41,42
 664 723 664 723 542 723 c 0,27,28
EndSplineSet
EndChar

StartChar: Delta
Encoding: 8710 8710 316
Width: 1277
GlyphClass: 2
Flags: W
LayerCount: 2
Fore
SplineSet
63 119 m 1,0,-1
 542 1396 l 1,1,-1
 743 1396 l 1,2,-1
 1214 121 l 1,3,-1
 1214 0 l 1,4,-1
 63 0 l 1,5,-1
 63 119 l 1,0,-1
1027 150 m 1,6,-1
 761 889 l 1,7,-1
 643 1227 l 1,8,-1
 529 889 l 1,9,-1
 256 150 l 1,10,-1
 1027 150 l 1,6,-1
EndSplineSet
EndChar

StartChar: product
Encoding: 8719 8719 317
Width: 1404
GlyphClass: 2
Flags: W
LayerCount: 2
Fore
SplineSet
1131 1193 m 1,0,-1
 1131 -187 l 1,1,-1
 956 -187 l 1,2,-1
 956 1193 l 1,3,-1
 449 1193 l 1,4,-1
 449 -187 l 1,5,-1
 274 -187 l 1,6,-1
 274 1193 l 1,7,-1
 65 1193 l 1,8,-1
 65 1361 l 1,9,-1
 1338 1361 l 1,10,-1
 1338 1193 l 1,11,-1
 1131 1193 l 1,0,-1
EndSplineSet
EndChar

StartChar: summation
Encoding: 8721 8721 318
Width: 1162
GlyphClass: 2
Flags: W
LayerCount: 2
Fore
SplineSet
79 -187 m 1,0,-1
 79 -65 l 1,1,-1
 586 585 l 1,2,-1
 102 1231 l 1,3,-1
 102 1361 l 1,4,-1
 1047 1361 l 1,5,-1
 1047 1204 l 1,6,-1
 343 1204 l 1,7,-1
 792 611 l 1,8,-1
 305 -14 l 1,9,-1
 1079 -14 l 1,10,-1
 1079 -187 l 1,11,-1
 79 -187 l 1,0,-1
EndSplineSet
EndChar

StartChar: minus
Encoding: 8722 8722 319
Width: 1268
GlyphClass: 2
Flags: W
LayerCount: 2
Fore
SplineSet
160 505 m 1,0,-1
 160 665 l 1,1,-1
 1108 665 l 1,2,-1
 1108 505 l 1,3,-1
 160 505 l 1,0,-1
EndSplineSet
EndChar

StartChar: radical
Encoding: 8730 8730 320
Width: 1105
GlyphClass: 2
Flags: W
LayerCount: 2
Fore
SplineSet
924 1618 m 1,0,-1
 1064 1618 l 1,1,-1
 630 -283 l 1,2,-1
 478 -283 l 1,3,-1
 177 597 l 1,4,-1
 32 540 l 1,5,-1
 -5 654 l 1,6,-1
 284 770 l 1,7,-1
 548 -57 l 1,8,-1
 924 1618 l 1,0,-1
EndSplineSet
EndChar

StartChar: infinity
Encoding: 8734 8734 321
Width: 1568
GlyphClass: 2
Flags: W
LayerCount: 2
Fore
SplineSet
1443 564 m 2,0,1
 1443 421 1443 421 1349 331 c 0,2,3
 1259 245 1259 245 1138 245 c 0,4,5
 1046 245 1046 245 968 301 c 0,6,7
 897 352 897 352 787 480 c 1,8,9
 688 363 688 363 633 323 c 0,10,11
 528 245 528 245 420 245 c 0,12,13
 299 245 299 245 212 334 c 0,14,15
 123 424 123 424 123 557 c 0,16,17
 123 695 123 695 212 786 c 0,18,19
 301 876 301 876 436 876 c 0,20,21
 531 876 531 876 627 810 c 0,22,23
 672 779 672 779 712.5 730.5 c 128,-1,24
 753 682 753 682 793 636 c 1,25,26
 810 655 810 655 829 678 c 128,-1,27
 848 701 848 701 868 724 c 0,28,29
 917 781 917 781 956 808 c 0,30,31
 1051 876 1051 876 1133.5 876 c 128,-1,32
 1216 876 1216 876 1269.5 853.5 c 128,-1,33
 1323 831 1323 831 1362 790 c 0,34,35
 1443 703 1443 703 1443 566 c 2,36,-1
 1443 564 l 2,0,1
438 357 m 2,37,38
 538 357 538 357 654 479 c 0,39,40
 688 514 688 514 721 551 c 1,41,42
 633 661 633 661 594 695 c 0,43,44
 512 765 512 765 424 765 c 0,45,46
 339 765 339 765 288 702 c 0,47,48
 239 642 239 642 239 555 c 0,49,50
 239 473 239 473 294 416 c 0,51,52
 352 357 352 357 436 357 c 2,53,-1
 438 357 l 2,37,38
1138 765 m 2,54,55
 1047 765 1047 765 925 640 c 0,56,57
 890 604 890 604 854 564 c 1,58,59
 953 450 953 450 997 416 c 0,60,61
 1075 357 1075 357 1131.5 357 c 128,-1,62
 1188 357 1188 357 1222 375 c 128,-1,63
 1256 393 1256 393 1280 422 c 0,64,65
 1327 479 1327 479 1327 542 c 128,-1,66
 1327 605 1327 605 1313 643.5 c 128,-1,67
 1299 682 1299 682 1274 709 c 0,68,69
 1222 765 1222 765 1140 765 c 2,70,-1
 1138 765 l 2,54,55
EndSplineSet
EndChar

StartChar: integral
Encoding: 8747 8747 322
Width: 710
GlyphClass: 2
Flags: W
LayerCount: 2
Fore
SplineSet
51 -146 m 1,0,1
 108 -172 108 -172 139.5 -172 c 128,-1,2
 171 -172 171 -172 197.5 -159.5 c 128,-1,3
 224 -147 224 -147 244 -108 c 0,4,5
 289 -20 289 -20 289 146 c 128,-1,6
 289 312 289 312 285 436 c 128,-1,7
 281 560 281 560 276 683 c 0,8,9
 264 1025 264 1025 264 1160.5 c 128,-1,10
 264 1296 264 1296 283.5 1390.5 c 128,-1,11
 303 1485 303 1485 341 1546 c 0,12,13
 415 1664 415 1664 566 1664 c 0,14,15
 619 1664 619 1664 683 1636 c 1,16,-1
 653 1504 l 1,17,18
 613 1527 613 1527 576 1527 c 128,-1,19
 539 1527 539 1527 509 1506 c 128,-1,20
 479 1485 479 1485 460 1440 c 0,21,22
 423 1351 423 1351 423 1192 c 128,-1,23
 423 1033 423 1033 427.5 914 c 128,-1,24
 432 795 432 795 437 674 c 0,25,26
 451 333 451 333 451 183.5 c 128,-1,27
 451 34 451 34 427.5 -64 c 128,-1,28
 404 -162 404 -162 364 -218 c 0,29,30
 295 -315 295 -315 161 -315 c 0,31,32
 89 -315 89 -315 24 -280 c 1,33,-1
 51 -146 l 1,0,1
EndSplineSet
EndChar

StartChar: approxequal
Encoding: 8776 8776 323
Width: 1229
GlyphClass: 2
Flags: W
LayerCount: 2
Fore
SplineSet
1079 452 m 1,0,1
 970 259 970 259 820 259 c 0,2,3
 756 259 756 259 699.5 286 c 128,-1,4
 643 313 643 313 610 332 c 128,-1,5
 577 351 577 351 546 367 c 0,6,7
 471 405 471 405 418 405 c 0,8,9
 336 405 336 405 266 314 c 0,10,11
 245 288 245 288 226 259 c 1,12,-1
 152 324 l 1,13,14
 200 415 200 415 271 468 c 128,-1,15
 342 521 342 521 430 521 c 0,16,17
 511 521 511 521 632.5 448 c 128,-1,18
 754 375 754 375 816 375 c 128,-1,19
 878 375 878 375 919.5 411 c 128,-1,20
 961 447 961 447 1005 519 c 1,21,-1
 1079 452 l 1,0,1
153 660 m 1,22,23
 256 856 256 856 430 856 c 0,24,25
 485 856 485 856 534.5 833.5 c 128,-1,26
 584 811 584 811 631.5 783.5 c 128,-1,27
 679 756 679 756 726.5 733.5 c 128,-1,28
 774 711 774 711 826.5 711 c 128,-1,29
 879 711 879 711 920 748 c 128,-1,30
 961 785 961 785 1005 857 c 1,31,-1
 1079 789 l 1,32,33
 973 596 973 596 820 596 c 0,34,35
 761 596 761 596 710 618.5 c 128,-1,36
 659 641 659 641 611 668.5 c 128,-1,37
 563 696 563 696 515.5 718.5 c 128,-1,38
 468 741 468 741 426 741 c 128,-1,39
 384 741 384 741 357.5 729 c 128,-1,40
 331 717 331 717 308 696 c 0,41,42
 273 665 273 665 226 596 c 1,43,-1
 153 660 l 1,22,23
EndSplineSet
EndChar

StartChar: notequal
Encoding: 8800 8800 324
Width: 1167
GlyphClass: 2
Flags: W
LayerCount: 2
Fore
SplineSet
742 804 m 1,0,-1
 1032 804 l 1,1,-1
 1032 687 l 1,2,-1
 693 687 l 1,3,-1
 572 421 l 1,4,-1
 1032 421 l 1,5,-1
 1032 305 l 1,6,-1
 524 305 l 1,7,-1
 421 76 l 1,8,-1
 329 118 l 1,9,-1
 415 305 l 1,10,-1
 132 305 l 1,11,-1
 132 421 l 1,12,-1
 464 421 l 1,13,-1
 582 687 l 1,14,-1
 132 687 l 1,15,-1
 132 804 l 1,16,-1
 630 804 l 1,17,-1
 731 1028 l 1,18,-1
 824 986 l 1,19,-1
 742 804 l 1,0,-1
EndSplineSet
EndChar

StartChar: lessequal
Encoding: 8804 8804 325
Width: 1118
GlyphClass: 2
Flags: W
LayerCount: 2
Fore
SplineSet
76 622 m 1,0,-1
 76 744 l 1,1,-1
 957 1183 l 1,2,-1
 957 1044 l 1,3,-1
 200 684 l 1,4,-1
 959 324 l 1,5,-1
 959 184 l 1,6,-1
 76 622 l 1,0,-1
65 2 m 1,7,-1
 65 123 l 1,8,-1
 964 123 l 1,9,-1
 964 2 l 1,10,-1
 65 2 l 1,7,-1
EndSplineSet
EndChar

StartChar: greaterequal
Encoding: 8805 8805 326
Width: 1110
GlyphClass: 2
Flags: W
LayerCount: 2
Fore
SplineSet
1040 743 m 1,0,-1
 1040 622 l 1,1,-1
 156 184 l 1,2,-1
 156 324 l 1,3,-1
 911 683 l 1,4,-1
 156 1044 l 1,5,-1
 156 1183 l 1,6,-1
 1040 743 l 1,0,-1
144 2 m 1,7,-1
 156 123 l 1,8,-1
 1042 123 l 1,9,-1
 1042 2 l 1,10,-1
 144 2 l 1,7,-1
EndSplineSet
EndChar

StartChar: lozenge
Encoding: 9674 9674 327
Width: 1045
GlyphClass: 2
Flags: W
LayerCount: 2
Fore
SplineSet
590 -89 m 1,0,-1
 450 -89 l 1,1,-1
 63 680 l 1,2,-1
 454 1449 l 1,3,-1
 595 1449 l 1,4,-1
 983 678 l 1,5,-1
 590 -89 l 1,0,-1
523 1285 m 1,6,-1
 226 678 l 1,7,-1
 524 65 l 1,8,-1
 820 676 l 1,9,-1
 523 1285 l 1,6,-1
EndSplineSet
EndChar

StartChar: fi
Encoding: 64257 64257 329
Width: 1205
GlyphClass: 2
Flags: W
LayerCount: 2
Fore
SplineSet
685 1234 m 1,0,1
 607 1249 607 1249 561 1249 c 128,-1,2
 515 1249 515 1249 487.5 1238.5 c 128,-1,3
 460 1228 460 1228 445 1208 c 0,4,5
 420 1175 420 1175 420 1086 c 2,6,-1
 420 1015 l 1,7,-1
 1046 1015 l 1,8,-1
 1046 0 l 1,9,-1
 860 0 l 1,10,-1
 860 866 l 1,11,-1
 420 866 l 1,12,-1
 420 0 l 1,13,-1
 231 0 l 1,14,-1
 231 866 l 1,15,-1
 43 866 l 1,16,-1
 43 997 l 1,17,-1
 232 1014 l 1,18,-1
 232 1062 l 2,19,20
 232 1247 232 1247 293 1319 c 1,21,22
 369 1412 369 1412 535 1412 c 0,23,24
 610 1412 610 1412 709 1386 c 1,25,-1
 685 1234 l 1,0,1
1064 1377 m 1,26,-1
 1064 1205 l 1,27,-1
 842 1205 l 1,28,-1
 842 1377 l 1,29,-1
 1064 1377 l 1,26,-1
EndSplineSet
EndChar

StartChar: fl
Encoding: 64258 64258 330
Width: 1194
GlyphClass: 2
Flags: W
LayerCount: 2
Fore
SplineSet
836 1261 m 1,0,-1
 561 1261 l 2,1,2
 441 1261 441 1261 425 1158 c 0,3,4
 420 1126 420 1126 420 1086 c 2,5,-1
 420 1015 l 1,6,-1
 649 1015 l 1,7,-1
 649 866 l 1,8,-1
 420 866 l 1,9,-1
 420 0 l 1,10,-1
 231 0 l 1,11,-1
 231 866 l 1,12,-1
 43 866 l 1,13,-1
 43 997 l 1,14,-1
 232 1014 l 1,15,-1
 232 1062 l 2,16,17
 232 1247 232 1247 293 1319 c 1,18,19
 369 1412 369 1412 535 1412 c 2,20,-1
 1025 1412 l 1,21,-1
 1025 0 l 1,22,-1
 836 0 l 1,23,-1
 836 1261 l 1,0,-1
EndSplineSet
EndChar

StartChar: g.alt
Encoding: 65539 -1 332
Width: 1166
GlyphClass: 2
Flags: W
LayerCount: 2
Fore
SplineSet
287 496 m 0,0,1
 287 141 287 141 552 141 c 0,2,3
 763 141 763 141 802 326 c 0,4,5
 815 384 815 384 815 439.5 c 128,-1,6
 815 495 815 495 812.5 539.5 c 128,-1,7
 810 584 810 584 801 628.5 c 128,-1,8
 792 673 792 673 774 715 c 128,-1,9
 756 757 756 757 726 789 c 0,10,11
 659 859 659 859 539 859 c 0,12,13
 354 859 354 859 304 656 c 0,14,15
 287 588 287 588 287 496 c 0,0,1
516 -353 m 0,16,17
 403 -353 403 -353 287 -303 c 1,18,-1
 287 -160 l 1,19,20
 411 -212 411 -212 542 -212 c 0,21,22
 731 -212 731 -212 792 -92 c 1,23,24
 815 -49 815 -49 815 22 c 2,25,-1
 815 129 l 1,26,27
 682 0 682 0 518 0 c 0,28,29
 332 0 332 0 222 117 c 0,30,31
 101 245 101 245 101 491 c 0,32,33
 101 741 101 741 218 876 c 0,34,35
 325 1000 325 1000 499.5 1000 c 128,-1,36
 674 1000 674 1000 816 836 c 1,37,-1
 829 984 l 1,38,-1
 1002 984 l 1,39,-1
 997 772 l 1,40,-1
 997 29 l 2,41,42
 997 -158 997 -158 856 -262 c 0,43,44
 732 -353 732 -353 516 -353 c 0,16,17
EndSplineSet
EndChar
